<?xml version="1.0" standalone="no"?>
<!DOCTYPE svg PUBLIC "-//W3C//DTD SVG 20010904//EN"
 "http://www.w3.org/TR/2001/REC-SVG-20010904/DTD/svg10.dtd">
<svg version="1.0" xmlns="http://www.w3.org/2000/svg"
 width="1890.000000pt" height="1890.000000pt" viewBox="0 0 1890.000000 1890.000000"
 preserveAspectRatio="xMidYMid meet">
<metadata>
Created by potrace 1.14, written by Peter Selinger 2001-2017
</metadata>
<g transform="translate(0.000000,1890.000000) scale(0.100000,-0.100000)"
fill="#000000" stroke="none">
<path d="M9910 16335 c0 -49 -11 -51 -602 -96 -544 -42 -557 -43 -577 -24 -12
10 -21 24 -21 32 0 7 -11 13 -26 13 -24 0 -25 -2 -20 -37 3 -21 8 -76 11 -123
11 -157 15 -179 33 -173 10 4 26 16 38 28 12 13 38 25 65 28 92 13 370 30 376
23 7 -7 52 -525 52 -601 0 -37 -3 -41 -42 -60 -31 -15 -47 -32 -62 -63 l-20
-43 -55 8 c-160 23 -247 3 -331 -75 -54 -50 -63 -54 -124 -62 -74 -9 -117 -33
-171 -93 -40 -45 -100 -87 -124 -87 -10 1 -78 150 -213 468 -242 573 -224 525
-208 555 8 15 10 31 5 40 -8 12 -36 3 -169 -54 -88 -37 -163 -69 -167 -71 -4
-2 -5 -13 -2 -25 4 -15 14 -23 29 -23 12 0 27 -6 32 -12 21 -27 173 -402 166
-408 -11 -10 -720 -310 -732 -310 -5 0 -43 80 -84 178 -105 247 -100 231 -83
257 12 18 12 26 3 38 -11 14 -32 7 -178 -55 -176 -75 -187 -86 -125 -112 29
-12 43 -42 240 -507 115 -272 210 -496 212 -499 1 -3 -75 -5 -169 -6 -154 0
-182 -3 -272 -27 -55 -15 -137 -45 -183 -68 l-83 -40 -47 52 c-53 59 -62 75
-55 105 2 12 -3 26 -12 34 -14 11 -22 8 -58 -26 -395 -373 -422 -396 -457
-392 -15 1 -35 -4 -44 -11 -14 -12 -5 -25 85 -122 89 -96 103 -107 119 -96 14
8 18 18 14 34 -11 44 6 69 131 186 103 97 129 116 141 106 12 -9 5 -21 -42
-71 -59 -64 -255 -351 -300 -440 -15 -29 -32 -73 -39 -98 -9 -38 -16 -47 -46
-57 -53 -18 -169 -16 -238 6 -110 34 -224 140 -280 261 -36 79 -42 210 -11
299 52 155 205 323 370 406 129 65 233 82 270 45 19 -19 50 -27 50 -14 0 5
-72 279 -86 327 -8 28 -33 20 -47 -16 -15 -34 -17 -35 -162 -92 -155 -62 -268
-136 -387 -257 -182 -183 -274 -366 -285 -563 -10 -187 45 -324 192 -471 92
-92 161 -137 268 -173 l52 -18 -42 0 c-55 0 -132 -40 -158 -81 -11 -17 -29
-46 -40 -64 -16 -26 -35 -38 -94 -59 -84 -29 -110 -54 -136 -126 -34 -95 -38
-103 -46 -103 -5 0 -153 91 -329 201 -339 214 -339 214 -310 269 7 13 5 21 -6
31 -21 17 -23 14 -151 -192 -99 -158 -108 -177 -93 -187 14 -9 22 -6 41 14 12
13 30 24 40 24 22 0 609 -369 616 -387 3 -7 -8 -29 -23 -49 -72 -89 -83 -108
-99 -177 -16 -64 -23 -77 -70 -122 -29 -27 -59 -64 -68 -81 -27 -53 -40 -154
-28 -219 16 -84 15 -91 -22 -132 -24 -27 -38 -58 -50 -108 -22 -89 -22 -88 10
-125 24 -29 25 -35 15 -64 -17 -45 -15 -59 9 -90 21 -27 21 -28 4 -60 -11 -21
-16 -44 -12 -62 4 -20 -15 -100 -60 -249 -35 -121 -68 -223 -71 -226 -6 -6
-387 103 -398 113 -5 6 163 574 183 616 19 40 45 55 89 50 26 -3 34 0 38 16 3
11 4 21 3 22 -1 1 -99 31 -217 67 -209 62 -215 63 -225 44 -7 -15 -6 -22 2
-24 35 -12 63 -46 63 -77 0 -27 -173 -634 -182 -641 -5 -4 -346 100 -353 107
-9 9 274 961 297 998 12 20 26 30 42 30 16 0 27 7 31 21 4 11 5 22 3 23 -13
12 -359 107 -367 101 -17 -10 -13 -30 9 -50 14 -12 20 -31 20 -58 0 -22 -85
-326 -195 -699 -108 -362 -193 -663 -190 -668 9 -15 31 -12 45 5 7 8 25 15 40
15 47 0 1344 -389 1357 -407 7 -9 13 -25 13 -36 0 -13 6 -18 22 -15 20 3 31
35 114 313 l92 310 43 0 c43 0 43 0 64 -55 27 -70 48 -82 144 -78 l75 3 33
-57 c33 -57 35 -58 79 -58 25 0 53 4 63 10 15 7 22 2 41 -33 41 -74 47 -79
107 -71 58 7 58 7 42 -48 -13 -51 11 -103 56 -122 49 -21 52 -34 16 -70 -18
-17 -42 -47 -54 -66 -17 -26 -52 -50 -147 -100 -170 -89 -164 -84 -226 -182
-31 -48 -75 -108 -100 -134 -28 -30 -72 -102 -124 -203 -43 -86 -102 -191
-130 -233 -51 -78 -189 -232 -240 -268 l-27 -19 -22 182 c-30 249 -30 247 -52
247 -11 0 -23 -10 -29 -24 -5 -13 -13 -27 -18 -30 -6 -3 -304 -42 -663 -86
-360 -44 -669 -82 -687 -85 -25 -5 -37 -1 -57 20 -31 30 -55 32 -55 4 0 -11
34 -295 75 -632 42 -337 80 -650 86 -695 11 -94 7 -118 -22 -127 -28 -9 -25
-45 4 -45 12 0 102 10 200 22 156 19 177 24 177 40 0 11 -13 23 -34 32 -19 8
-39 24 -45 35 -11 19 -131 951 -131 1014 0 15 6 27 13 27 6 0 97 11 202 24
104 14 191 24 191 23 1 -1 19 -140 39 -308 44 -354 43 -373 -16 -398 -28 -12
-39 -22 -39 -38 0 -19 4 -22 28 -18 15 3 101 14 192 25 230 28 230 28 230 49
0 14 -10 20 -40 25 -31 5 -43 13 -55 36 -10 19 -31 151 -54 343 -22 171 -39
313 -38 314 7 6 359 44 364 39 4 -3 12 -50 19 -104 l13 -97 -27 -28 c-22 -23
-27 -39 -30 -96 -4 -65 -3 -70 27 -100 28 -29 30 -34 17 -54 -17 -27 -26 -67
-28 -129 -1 -55 48 -167 94 -210 25 -24 29 -34 34 -115 7 -93 -3 -133 -31
-133 -9 0 -15 -10 -15 -25 0 -14 3 -25 8 -24 4 0 88 10 187 22 164 20 180 24
183 42 1 14 -7 24 -30 35 -35 16 -50 52 -60 140 l-5 45 76 38 c74 36 78 37
156 31 77 -6 81 -5 108 20 28 26 28 28 25 128 l-3 101 60 24 c75 29 91 45 119
122 19 52 29 66 62 85 36 20 40 27 61 106 13 47 27 119 32 160 14 104 38 180
57 180 9 0 29 -10 46 -21 l30 -22 -36 -33 c-34 -32 -36 -36 -36 -99 0 -52 5
-73 20 -92 27 -34 25 -44 -13 -68 -46 -29 -73 -77 -86 -150 -10 -58 -10 -70 7
-108 11 -23 33 -55 51 -71 37 -36 38 -45 7 -91 -30 -43 -41 -107 -31 -172 6
-42 15 -63 54 -122 5 -8 29 -17 53 -20 l43 -6 5 -65 c6 -65 16 -91 71 -178 27
-42 29 -53 23 -99 -8 -68 8 -113 57 -157 32 -30 47 -36 84 -36 50 0 71 -22 62
-68 -10 -52 36 -111 110 -143 65 -28 82 -50 76 -98 l-6 -41 36 0 c31 0 40 -6
66 -42 16 -24 49 -64 73 -89 37 -40 55 -51 128 -73 47 -14 90 -29 96 -34 6 -4
23 -30 37 -58 32 -63 76 -85 190 -92 76 -5 78 -5 105 -42 23 -33 34 -39 92
-50 48 -9 75 -9 104 -1 39 10 41 9 75 -28 26 -27 55 -44 101 -59 86 -29 220
-47 230 -33 4 8 15 4 31 -10 38 -34 110 -63 159 -62 30 0 65 10 105 30 96 49
97 49 145 3 65 -63 108 -56 276 44 31 19 32 19 60 -1 73 -51 136 -50 237 5 35
19 49 33 55 56 9 33 65 79 91 74 19 -4 33 -56 21 -79 -17 -30 -311 -188 -474
-253 -165 -66 -235 -80 -411 -80 -144 0 -174 3 -298 32 -95 21 -159 42 -205
67 -41 22 -108 45 -172 60 -189 43 -361 93 -381 111 -11 10 -29 32 -40 50 -34
56 -103 79 -457 155 -312 66 -372 64 -550 -22 -109 -53 -148 -90 -173 -167 -7
-20 -27 -71 -45 -113 -19 -42 -45 -118 -59 -169 -13 -51 -26 -94 -28 -96 -5
-6 -84 100 -91 124 -5 15 -2 31 8 46 12 19 12 27 3 40 -11 15 -26 7 -132 -74
-66 -51 -124 -95 -128 -99 -17 -17 6 -40 41 -43 35 -3 44 -13 164 -168 97
-126 124 -168 115 -176 -10 -9 -507 -390 -741 -568 -42 -32 -55 -37 -83 -31
-60 11 -51 -16 54 -151 54 -71 103 -134 108 -141 6 -8 18 -11 28 -7 14 5 16
14 11 38 -5 32 -5 33 395 340 221 169 405 305 410 302 12 -8 226 -287 240
-315 7 -13 11 -35 8 -50 -10 -50 7 -58 53 -25 22 16 48 33 55 39 11 7 26 -1
62 -37 l46 -46 -347 -417 c-306 -367 -351 -416 -372 -412 -14 2 -29 -2 -38
-12 -13 -14 30 -53 417 -376 237 -198 435 -369 440 -380 6 -11 13 -26 17 -34
3 -8 11 -16 16 -18 6 -2 52 46 103 107 73 88 90 114 81 125 -7 9 -23 12 -44 8
-18 -3 -44 0 -56 7 -13 7 -155 123 -317 257 l-294 245 44 52 c24 28 74 88 112
134 37 45 71 82 75 82 7 0 329 -267 378 -313 23 -22 32 -39 29 -54 -2 -13 3
-29 12 -37 14 -13 26 -3 113 102 61 74 93 121 87 127 -5 5 -24 8 -42 7 -22 -2
-44 5 -63 20 -74 56 -374 311 -374 317 0 5 156 198 185 229 2 2 136 -107 299
-243 180 -150 298 -255 301 -268 2 -12 6 -33 7 -47 2 -15 9 -25 19 -25 12 0
116 114 186 204 7 9 281 -133 322 -167 24 -21 53 -45 65 -55 27 -22 -52 12
-193 82 -96 48 -100 50 -106 30 -4 -12 -2 -26 4 -32 6 -6 11 -21 11 -33 0 -12
-110 -250 -244 -530 -240 -502 -244 -509 -275 -512 -17 -2 -35 -11 -41 -21 -8
-16 12 -28 163 -100 155 -74 173 -80 184 -65 10 13 8 21 -8 43 l-20 27 96 199
c52 109 97 200 99 202 3 3 376 -175 376 -180 0 -1 16 -111 35 -245 36 -256 35
-292 -4 -292 -11 0 -24 -8 -30 -17 -8 -16 15 -30 180 -108 104 -49 195 -91
203 -93 26 -6 27 29 1 59 -13 17 -29 47 -35 67 -10 35 -80 488 -80 516 0 11
19 12 88 8 187 -10 311 62 383 223 33 73 33 202 0 264 -30 57 -108 140 -177
187 -30 21 -52 39 -50 41 5 5 160 -64 283 -126 l101 -50 -24 -113 c-14 -62
-26 -118 -29 -125 -7 -20 36 -22 56 -2 10 10 25 19 32 19 6 0 101 -18 210 -41
151 -33 197 -46 197 -58 0 -16 -184 -879 -201 -943 -7 -28 -16 -39 -35 -44
-18 -5 -24 -12 -22 -28 3 -18 22 -25 178 -58 134 -29 176 -35 182 -25 12 19
10 25 -12 37 -11 6 -20 21 -20 33 0 30 200 970 208 978 9 8 380 -73 410 -89
12 -7 22 -21 22 -31 0 -12 9 -20 23 -23 22 -4 24 1 55 146 18 83 32 156 32
162 0 7 -9 14 -19 17 -13 3 -22 -3 -29 -18 -6 -13 -20 -26 -31 -30 -16 -5
-304 49 -385 72 -13 4 7 15 65 37 83 31 157 75 191 113 24 26 48 98 48 143 l0
38 89 21 c127 30 125 31 162 -40 46 -86 89 -119 156 -119 l53 0 30 -60 c16
-32 40 -64 52 -71 12 -6 69 -14 127 -16 96 -5 113 -3 186 22 l80 27 28 -33
c15 -18 27 -36 27 -40 0 -10 49 -27 95 -34 22 -4 55 -11 73 -17 29 -9 42 -5
106 25 101 48 178 130 225 239 17 41 21 44 87 61 93 24 181 61 210 88 14 13
26 39 30 65 7 49 25 61 68 44 40 -15 69 -12 139 11 94 31 359 164 387 194 14
15 32 52 40 83 14 52 21 60 85 109 39 30 106 89 150 131 75 73 158 128 294
197 51 25 57 26 85 13 44 -21 69 -11 203 81 64 45 125 81 134 81 19 0 40 -24
57 -62 6 -15 22 -34 36 -43 22 -14 32 -15 78 -5 29 7 66 10 82 8 27 -3 30 -8
41 -58 14 -70 17 -74 73 -106 54 -31 112 -83 112 -99 0 -7 -9 -20 -21 -31 -18
-16 -20 -26 -14 -74 7 -64 1 -73 -55 -85 -19 -4 -57 -19 -85 -33 l-50 -25 -80
17 c-102 21 -123 20 -163 -4 -45 -27 -57 -25 -80 13 -28 49 -209 135 -268 129
-52 -5 -84 11 -84 43 0 51 -49 68 -114 41 -30 -12 -36 -21 -46 -68 -7 -32 -11
-101 -9 -169 4 -110 6 -119 41 -190 57 -113 101 -167 156 -190 65 -28 185 -56
360 -83 l147 -22 122 -279 c68 -153 121 -281 119 -283 -3 -2 -197 78 -433 178
-654 278 -615 259 -609 284 7 30 -8 50 -30 42 -11 -4 -98 -41 -196 -84 -156
-67 -175 -79 -167 -94 5 -10 20 -18 33 -18 13 0 28 -6 34 -12 11 -14 462
-1042 462 -1054 0 -4 -7 -15 -16 -25 -9 -10 -13 -26 -10 -37 6 -19 18 -15 171
51 144 63 162 73 154 89 -6 11 -21 18 -39 18 -20 0 -34 8 -44 22 -20 32 -349
789 -344 793 3 3 1007 -425 1091 -465 21 -10 27 -19 23 -34 -3 -12 -1 -28 4
-35 7 -12 40 0 178 60 138 60 168 77 164 91 -3 12 -14 18 -32 18 -15 0 -32 6
-37 13 -22 28 -353 801 -346 807 4 4 31 15 58 24 28 10 97 41 154 68 l103 51
23 -24 c13 -13 137 -157 274 -319 197 -231 251 -300 249 -320 -2 -27 8 -50 21
-50 4 0 62 46 128 103 100 86 118 106 109 119 -7 10 -22 14 -41 11 -29 -4 -43
11 -295 307 -146 172 -265 317 -265 324 0 6 7 10 15 8 8 -2 221 -89 472 -193
251 -104 459 -189 462 -189 12 0 4 44 -100 526 -58 272 -104 501 -102 510 2 9
64 -57 158 -167 85 -101 211 -248 279 -328 122 -142 124 -145 113 -175 -9 -24
-9 -33 1 -43 10 -10 37 9 138 96 106 90 125 110 117 125 -7 12 -17 16 -33 12
-29 -7 -24 -12 -440 478 -289 340 -330 393 -330 422 0 67 -14 61 -178 -78
-144 -122 -155 -134 -141 -149 9 -10 22 -15 30 -12 8 3 18 -5 24 -19 9 -21
179 -830 175 -835 -1 -2 -125 45 -276 103 l-275 106 18 67 c9 36 17 93 17 126
1 118 -73 378 -157 555 -39 83 -57 107 -146 196 -154 154 -146 151 -507 163
-346 12 -352 11 -524 -73 -89 -44 -135 -59 -240 -81 -278 -57 -455 -139 -665
-310 -42 -34 -118 -85 -170 -115 -152 -86 -176 -106 -252 -207 -79 -106 -172
-190 -322 -292 -207 -140 -402 -233 -519 -247 -155 -18 -348 98 -426 257 -83
173 -80 305 13 457 56 92 124 161 380 381 275 238 351 314 496 496 56 72 107
132 112 134 5 2 19 -6 31 -17 33 -31 128 -72 167 -72 19 0 46 6 60 14 120 64
107 61 164 43 94 -30 164 -16 204 40 18 26 30 31 78 36 35 4 83 19 123 39 61
31 67 37 83 83 l17 50 62 -3 c35 -1 78 3 96 8 38 13 89 67 123 133 27 51 37
55 100 36 30 -9 48 -8 96 6 120 35 176 76 253 188 26 39 49 56 124 94 147 73
199 113 227 172 22 48 23 56 13 119 -6 37 -17 81 -24 97 -7 17 -13 33 -13 36
-1 3 27 29 60 57 83 68 108 111 101 165 -4 23 -9 53 -12 67 -6 22 1 32 53 73
101 79 114 114 90 245 l-12 65 51 46 c28 25 70 72 93 104 23 31 46 57 50 57
20 0 32 -77 37 -220 2 -85 9 -169 14 -187 6 -18 38 -57 76 -92 l66 -62 -6 -58
c-4 -32 -18 -94 -32 -137 -31 -100 -31 -112 2 -207 l28 -77 -23 -63 c-26 -73
-28 -146 -6 -192 19 -40 73 -65 139 -65 l45 0 40 -81 c49 -96 111 -163 164
-175 36 -9 42 -16 112 -144 88 -157 117 -190 172 -190 31 0 51 -10 106 -54 37
-29 91 -67 119 -82 48 -27 60 -29 157 -29 85 0 105 -3 107 -15 2 -8 -35 -71
-82 -139 -91 -134 -96 -155 -30 -144 31 5 67 -17 467 -287 506 -343 508 -344
508 -375 0 -26 27 -53 39 -39 5 5 143 207 306 449 358 529 334 495 361 495 25
0 41 30 22 41 -7 4 -62 42 -123 84 -97 67 -111 74 -122 59 -8 -12 -9 -22 -1
-39 7 -16 7 -33 1 -52 -7 -20 -394 -603 -439 -662 -4 -5 -294 193 -294 202 0
9 222 338 267 394 23 28 42 43 57 43 13 0 30 7 37 16 11 14 10 18 -5 30 -18
12 -17 14 4 50 13 20 27 57 32 82 12 66 31 91 77 98 57 9 100 39 118 81 8 20
19 77 23 126 6 57 14 96 24 105 13 14 39 7 238 -62 123 -43 233 -84 246 -92
12 -8 22 -24 22 -38 0 -15 7 -26 18 -28 16 -5 27 18 76 160 45 130 54 167 44
173 -20 13 -26 11 -38 -11 -6 -11 -21 -20 -33 -20 -13 0 -106 29 -207 65 -101
36 -185 65 -187 65 -10 0 0 41 13 54 19 19 30 60 39 141 6 58 5 62 -29 107
-33 43 -35 48 -19 57 38 20 653 291 660 291 5 0 17 -9 26 -21 10 -11 23 -19
29 -17 10 4 127 319 128 344 0 21 -36 22 -49 3 -6 -11 -19 -19 -28 -19 -12 0
-675 227 -776 266 -16 6 -16 8 -1 34 16 27 16 29 -27 108 l-44 81 32 33 c74
79 81 159 24 301 -17 43 -31 91 -31 108 l0 31 48 -6 c26 -3 229 -22 452 -41
223 -20 415 -38 427 -40 12 -3 25 -14 28 -25 4 -12 15 -20 29 -20 22 0 23 5
35 153 7 83 15 167 18 185 5 29 3 32 -21 32 -16 0 -26 -6 -26 -15 0 -35 -33
-35 -426 0 -214 19 -400 36 -414 37 -20 3 -25 8 -25 33 0 26 7 33 53 55 63 30
72 42 72 97 0 23 4 53 10 67 8 23 15 26 57 26 56 0 105 26 126 67 19 37 28
168 15 221 -6 23 -20 51 -32 61 -65 59 -138 111 -157 111 -11 0 -97 -25 -190
-56 -145 -47 -178 -62 -224 -100 -45 -36 -62 -44 -95 -44 -30 0 -40 -4 -40
-16 0 -9 8 -22 17 -29 15 -11 9 -23 -51 -115 -37 -56 -81 -136 -97 -177 -16
-41 -38 -92 -49 -113 -11 -21 -24 -79 -31 -131 -6 -52 -21 -134 -34 -184 -44
-169 -58 -465 -30 -595 19 -87 19 -110 -1 -110 -18 0 -18 2 8 -155 15 -96 18
-689 2 -705 -5 -5 -24 -13 -42 -16 -25 -5 -32 -3 -32 9 0 16 -37 30 -45 17 -2
-4 -34 -92 -70 -196 -59 -171 -64 -190 -49 -201 14 -10 20 -8 34 9 13 17 23
20 53 14 20 -4 38 -10 41 -14 2 -4 -13 -34 -35 -66 -29 -43 -39 -68 -39 -97 0
-21 -2 -39 -5 -39 -3 0 -47 28 -97 61 -84 57 -92 60 -104 44 -9 -13 -10 -22
-2 -35 17 -27 3 -62 -76 -177 -70 -102 -76 -108 -107 -107 -19 1 -81 21 -137
45 -102 43 -107 46 -242 179 -132 130 -238 259 -283 344 -16 32 -21 60 -22
131 0 71 -5 99 -22 130 -17 33 -22 66 -27 190 -10 206 -32 404 -56 500 -11 44
-20 96 -20 115 0 19 -7 60 -15 90 -13 48 -13 63 1 129 9 41 13 88 10 104 -20
100 -223 350 -295 363 -53 10 -71 22 -71 48 0 13 8 30 18 38 34 29 51 28 88
-4 l36 -32 56 13 c116 27 117 27 140 -14 l22 -36 87 2 c70 1 98 -3 135 -19 68
-30 126 -44 149 -37 13 4 33 32 51 70 16 35 35 68 42 74 6 5 69 17 138 25 176
20 194 31 228 146 15 50 20 56 65 77 148 69 138 61 157 137 10 43 23 73 34 79
32 18 105 90 120 118 9 18 14 59 14 111 0 61 7 104 25 161 30 94 31 131 5 199
-22 57 -25 99 -11 114 17 16 41 126 41 187 0 65 -15 100 -66 157 -28 31 -33
43 -26 57 5 10 17 53 27 96 l17 78 -32 89 -32 89 25 30 c39 47 80 138 84 189
5 49 5 50 -80 156 -27 34 -28 35 -11 61 24 37 14 81 -52 217 l-57 117 21 48
c20 45 20 49 4 73 -38 59 -51 93 -42 111 16 29 12 79 -12 153 l-22 69 32 92
c17 50 32 100 33 111 0 13 126 115 404 329 353 271 408 310 439 310 19 0 39 5
45 10 7 7 -30 62 -115 172 -112 146 -127 161 -143 151 -11 -6 -17 -17 -15 -23
10 -25 -31 -37 -242 -70 -121 -18 -310 -48 -422 -66 -112 -17 -205 -30 -207
-27 -5 5 332 767 348 786 6 8 20 11 33 8 13 -4 27 0 34 9 9 11 -11 43 -111
173 -108 140 -125 158 -141 148 -10 -6 -16 -18 -13 -26 3 -9 -1 -23 -7 -32
-10 -12 -655 -512 -880 -682 -21 -15 -52 -29 -70 -31 -18 -1 -49 -6 -68 -10
-34 -6 -36 -5 -58 38 -41 79 -170 191 -268 234 -52 22 -66 34 -80 64 -9 21
-27 48 -40 60 -13 12 -24 31 -24 41 0 11 151 228 336 484 299 413 338 464 362
464 15 0 34 -4 42 -10 14 -9 40 4 40 20 0 4 -79 65 -176 135 -164 119 -177
126 -192 111 -16 -16 -16 -18 -1 -29 40 -30 41 -52 2 -108 -120 -175 -619
-858 -642 -880 -25 -23 -26 -27 -12 -36 24 -16 4 -41 -67 -85 -88 -54 -98 -54
-95 5 3 41 0 47 -17 47 -17 0 -20 7 -20 46 l0 47 44 -6 c24 -4 62 -13 85 -21
42 -14 42 -14 28 7 -7 12 -35 38 -60 57 -46 34 -47 36 -47 90 0 42 -7 68 -30
109 -35 64 -36 72 -10 96 27 24 25 48 -7 103 -19 31 -23 47 -15 50 28 9 133
85 157 113 32 39 32 60 -1 99 -48 57 -144 92 -249 91 -73 0 -110 -13 -148 -49
-47 -44 -121 -154 -137 -203 l-16 -47 -308 124 c-170 68 -310 125 -312 127 -5
4 365 929 378 945 6 6 25 12 43 12 21 0 35 6 39 16 4 9 5 18 4 19 -2 2 -90 38
-197 81 -156 62 -195 74 -202 63 -13 -21 -11 -25 16 -43 14 -9 25 -26 25 -38
0 -23 -406 -1053 -424 -1077 -7 -9 -23 -11 -48 -8 -21 3 -38 1 -38 -3 0 -5 -3
-15 -6 -23 -3 -10 4 -17 22 -21 14 -4 25 -9 23 -11 -7 -7 -280 62 -292 74 -6
6 -10 27 -9 46 3 38 -54 193 -93 255 -47 74 -81 90 -271 125 -77 14 -161 32
-189 40 -27 9 -84 18 -125 21 -41 3 -96 14 -121 24 -53 22 -197 41 -284 38
-33 -1 -140 4 -238 11 -98 7 -189 10 -203 7 -21 -6 -24 -3 -24 21 0 16 -11
161 -24 323 -13 162 -23 296 -23 296 1 1 94 8 206 17 206 16 245 13 257 -18 4
-8 15 -15 27 -15 19 0 20 4 13 103 -15 227 -16 237 -42 237 -19 0 -24 -5 -24
-25z m-224 -999 c3 -8 -2 -26 -12 -41 -9 -14 -14 -28 -10 -32 9 -10 66 -5 97
8 33 13 79 5 79 -14 0 -15 -35 -49 -67 -66 -52 -27 -154 2 -166 48 -8 33 4 71
31 91 29 24 41 25 48 6z m410 -13 c14 -47 35 -83 44 -78 6 3 10 24 10 46 0 38
2 40 27 37 38 -4 54 -49 28 -78 -10 -11 -23 -30 -29 -42 -17 -33 -50 -40 -81
-17 -43 35 -72 130 -42 142 24 10 38 7 43 -10z m-676 -41 c45 -44 48 -57 21
-111 -30 -57 -42 -64 -91 -51 -72 19 -89 31 -100 68 -15 57 2 105 45 122 47
20 83 11 125 -28z m1124 -43 c11 -10 -12 -95 -30 -114 -21 -20 -51 -7 -94 43
-43 48 -49 66 -25 76 17 6 65 -13 65 -26 0 -19 18 -6 24 18 5 20 11 24 29 18
12 -3 26 -10 31 -15z m-1487 -57 c33 -39 29 -57 -14 -70 -34 -11 -40 -9 -63
13 -34 33 -55 31 -92 -5 -35 -36 -47 -37 -82 -9 -47 37 -35 52 68 90 72 26
153 18 183 -19z m-1082 -209 l88 -206 -29 -23 c-19 -16 -42 -24 -68 -24 -24 0
-60 -12 -97 -32 -53 -28 -63 -38 -89 -94 -29 -59 -35 -65 -96 -94 -56 -26 -68
-37 -84 -73 -15 -34 -44 -156 -66 -275 -3 -13 -23 -40 -44 -60 l-40 -37 -6
-150 c-3 -82 -7 -193 -9 -245 -2 -58 -9 -110 -19 -132 -9 -21 -16 -57 -16 -81
0 -41 4 -48 45 -81 25 -21 45 -44 45 -52 0 -8 -12 -38 -26 -66 -14 -28 -26
-66 -26 -83 0 -62 50 -125 99 -125 36 0 48 -34 24 -67 -12 -16 -26 -61 -33
-101 -10 -61 -10 -79 2 -115 13 -36 24 -47 73 -73 90 -47 90 -48 66 -124 -26
-82 -26 -159 1 -234 11 -33 20 -78 20 -101 0 -51 -25 -200 -45 -271 -13 -46
-13 -57 1 -105 18 -61 13 -78 -51 -157 -34 -42 -35 -47 -33 -116 3 -84 0 -90
-84 -147 -67 -46 -85 -76 -94 -156 -9 -78 -24 -104 -113 -198 -67 -70 -79 -87
-89 -135 -17 -75 -51 -132 -91 -151 -43 -20 -48 -30 -56 -109 -5 -53 -3 -76
14 -120 30 -78 28 -94 -16 -121 -21 -13 -59 -43 -85 -68 -43 -39 -48 -48 -48
-86 0 -24 11 -72 25 -109 l25 -66 -36 -108 c-31 -89 -38 -127 -44 -227 l-6
-120 28 -30 c33 -37 34 -53 8 -130 -27 -79 -26 -88 19 -135 39 -41 40 -42 94
-35 33 4 57 3 61 -3 3 -5 7 -33 9 -61 5 -61 38 -110 94 -137 40 -19 156 -24
221 -9 26 6 40 2 70 -17 20 -14 64 -37 96 -52 124 -56 176 -124 124 -160 -30
-21 -61 -20 -110 5 -37 19 -51 20 -145 14 l-103 -7 -83 47 c-107 62 -176 116
-263 207 -131 136 -174 189 -236 294 -73 122 -167 227 -368 409 -93 84 -160
155 -201 211 -47 65 -72 90 -109 109 -99 50 -119 127 -80 299 19 83 22 115 17
209 -7 128 -35 254 -73 330 -33 65 -155 225 -247 323 -38 41 -110 105 -161
142 -93 70 -139 99 -375 238 -74 43 -156 100 -183 126 -68 66 -103 144 -102
228 0 58 5 75 52 164 29 55 52 106 52 112 0 28 24 24 76 -10 57 -38 62 -48 42
-91 -10 -22 -9 -28 3 -36 8 -5 17 -8 21 -6 4 1 59 85 123 187 106 168 115 185
99 197 -15 11 -21 9 -40 -12 -13 -14 -31 -25 -41 -25 -21 0 -83 36 -83 47 0
11 94 84 150 116 80 46 226 89 320 94 257 12 423 24 471 33 39 8 74 7 127 -2
69 -11 80 -10 215 20 111 24 164 42 242 81 191 95 372 259 500 451 115 172
150 276 162 476 5 87 3 111 -16 175 -24 76 -82 201 -109 232 -8 9 -12 20 -8
24 4 4 44 23 90 43 78 33 83 37 73 56 -7 11 -20 18 -29 16 -9 -2 -23 7 -31 20
-29 45 -189 432 -181 435 5 2 171 73 369 157 198 85 363 155 366 155 3 1 45
-92 94 -206z m699 97 c12 -11 33 -31 48 -44 15 -13 30 -36 34 -51 18 -74 -140
-130 -268 -94 -50 13 -50 42 -2 100 19 23 42 55 49 70 16 29 30 36 84 38 21 1
42 -6 55 -19z m1236 -65 c154 -22 404 -67 413 -75 4 -3 -28 -2 -70 2 -43 5
-213 7 -378 6 -285 -3 -302 -4 -340 -25 -70 -37 -92 -71 -171 -264 -42 -101
-106 -249 -144 -329 -70 -149 -84 -184 -152 -380 -58 -166 -54 -235 16 -228
30 3 32 7 67 110 19 59 38 110 42 114 4 4 24 2 46 -4 80 -24 116 -11 139 48 8
20 22 29 62 39 77 20 101 17 127 -13 13 -15 23 -34 23 -42 0 -8 -31 -75 -69
-148 -38 -74 -79 -161 -91 -192 -12 -32 -39 -77 -60 -100 -67 -73 -117 -194
-189 -462 -44 -159 -89 -298 -116 -356 -16 -33 -21 -36 -57 -36 -80 0 -135 59
-109 116 23 52 11 96 -36 122 -14 8 -12 19 16 96 39 108 41 173 8 212 -17 20
-33 27 -56 26 -42 -1 -46 14 -22 75 11 28 27 80 36 115 27 107 64 216 115 337
26 64 80 211 120 326 112 327 224 578 312 697 46 62 157 170 218 211 32 22
155 22 300 2z m-504 -129 c-24 -29 -57 -73 -73 -97 -74 -107 -190 -377 -298
-689 -42 -124 -99 -277 -125 -340 -27 -64 -61 -158 -75 -210 -15 -52 -40 -137
-57 -187 -17 -53 -27 -101 -23 -113 7 -23 38 -42 63 -39 33 3 40 -1 49 -28 11
-32 -1 -96 -36 -183 -29 -76 -27 -96 10 -116 28 -14 30 -19 24 -47 -19 -92
-18 -102 11 -137 34 -40 79 -60 137 -60 49 0 63 11 95 75 23 48 72 199 104
322 l23 88 5 -70 c5 -54 17 -93 52 -170 25 -55 60 -147 78 -205 56 -183 107
-332 144 -422 43 -102 111 -365 127 -488 11 -83 11 -88 -19 -177 -17 -51 -34
-110 -38 -130 -10 -56 -47 -123 -91 -165 -57 -54 -328 -254 -408 -300 -169
-98 -269 -181 -335 -277 -45 -68 -146 -266 -171 -338 -10 -29 -20 -100 -24
-165 -9 -138 2 -172 76 -239 44 -39 52 -52 56 -91 4 -37 1 -49 -20 -74 l-25
-29 -124 0 c-67 0 -128 -3 -134 -7 -7 -4 -32 1 -56 12 -43 19 -46 19 -97 2
l-53 -16 -73 37 c-98 51 -144 103 -184 207 -53 137 -66 202 -53 270 14 75 201
492 300 670 93 167 112 209 196 435 57 151 73 185 102 210 33 29 41 51 135
355 115 376 126 430 110 563 -17 150 -44 213 -194 461 -102 169 -205 370 -238
466 -20 58 -23 85 -23 245 -1 167 1 187 26 278 67 238 109 297 352 487 83 65
180 144 216 175 50 44 116 81 290 167 184 91 261 125 308 137 1 1 -17 -23 -42
-53z m-986 -5 c23 -24 49 -41 66 -43 37 -4 68 -53 44 -69 -8 -5 -35 -9 -60 -7
-28 1 -59 -5 -83 -17 -33 -17 -44 -18 -95 -7 -78 16 -81 16 -92 -13 -13 -33
-32 -32 -53 5 -16 26 -16 32 -3 65 19 44 49 57 97 40 48 -17 101 -22 100 -10
-1 6 -16 15 -33 21 -46 15 -45 32 4 54 59 27 66 26 108 -19z m1858 19 c213
-24 429 -74 847 -200 342 -102 623 -203 1025 -367 211 -86 262 -116 303 -176
19 -29 62 -86 96 -127 l62 -75 -6 -90 c-7 -99 -37 -411 -61 -630 -17 -162 -43
-316 -54 -328 -4 -5 -19 -2 -33 7 -21 14 -25 27 -31 88 -8 86 -27 111 -98 133
-55 16 -78 11 -125 -29 -35 -30 -67 -102 -117 -266 l-35 -115 0 65 c-1 93 -14
128 -70 185 -27 27 -78 86 -113 129 -35 44 -88 99 -118 122 -119 92 -131 106
-147 169 -11 42 -16 115 -17 240 -1 165 -3 184 -24 230 -53 114 -155 173 -347
200 -27 4 -80 23 -119 43 -69 37 -70 37 -190 36 -92 0 -138 -5 -191 -21 -38
-11 -97 -26 -131 -32 -77 -14 -239 -79 -296 -119 -24 -17 -68 -56 -98 -87 -30
-31 -67 -63 -81 -70 -14 -8 -95 -32 -180 -55 -158 -42 -289 -98 -419 -178 -36
-22 -67 -39 -68 -37 -7 7 81 202 139 308 l58 109 -16 39 c-31 79 -83 94 -208
63 -62 -16 -65 -18 -75 -55 -13 -46 -32 -50 -112 -22 -43 16 -50 16 -58 3 -15
-23 -58 -139 -70 -187 -6 -24 -15 -43 -20 -43 -19 0 -21 43 -4 93 40 126 140
379 181 460 24 49 80 177 125 285 44 108 89 211 99 229 12 18 41 42 71 57 l52
26 288 0 c159 0 332 -5 386 -10z m687 -86 c323 -71 794 -194 955 -250 179 -61
523 -197 662 -262 100 -46 123 -74 134 -160 20 -158 -112 -1160 -196 -1487
-21 -82 -62 -226 -90 -320 -29 -93 -55 -177 -57 -186 -3 -10 -28 -23 -63 -33
-84 -24 -98 -38 -121 -131 -24 -95 -80 -226 -94 -221 -48 17 -50 16 -84 -34
-38 -56 -45 -58 -147 -39 -66 12 -84 23 -66 41 7 7 12 25 12 41 0 23 -6 31
-30 40 -16 6 -30 15 -30 19 0 5 34 82 76 171 87 186 175 424 264 712 99 324
107 343 149 371 36 24 38 24 85 8 26 -9 50 -23 53 -30 3 -8 8 -46 12 -86 l6
-72 58 -35 c42 -25 61 -31 66 -22 29 47 115 774 128 1079 7 180 13 168 -132
264 -120 80 -182 110 -425 208 -445 179 -687 262 -1215 417 -169 49 -144 48
90 -3z m1762 -91 c5 -11 -5 -27 -31 -49 l-38 -33 20 -28 c11 -15 32 -39 47
-53 60 -56 52 -98 -30 -146 -52 -30 -75 -26 -76 13 0 15 -4 37 -8 48 -8 19 -8
19 -20 -3 -7 -13 -11 -33 -9 -45 3 -19 -2 -22 -32 -22 -33 0 -35 2 -38 38 -2
27 6 58 28 104 28 61 29 68 15 89 -13 20 -21 54 -12 54 1 0 29 11 62 25 71 29
113 32 122 8z m-4623 -59 c30 -29 20 -44 -29 -44 -32 0 -45 -4 -45 -14 0 -16
21 -26 58 -26 18 0 36 10 53 31 21 26 31 31 52 25 30 -7 34 -29 16 -70 -24
-51 -106 -59 -204 -19 -61 25 -65 29 -65 58 0 31 19 56 50 68 32 12 99 7 114
-9z m-174 -220 c16 -41 12 -59 -22 -110 -25 -37 -39 -49 -58 -49 -22 0 -25 5
-28 38 -4 44 -17 49 -25 8 -7 -33 -36 -54 -57 -41 -11 7 -12 19 -4 56 14 70
75 114 172 123 7 0 17 -11 22 -25z m4856 -127 c2 -7 -2 -32 -11 -56 -8 -24
-15 -55 -16 -70 0 -20 -5 -14 -20 27 -14 36 -31 60 -56 76 -29 20 -32 25 -16
29 40 10 114 7 119 -6z m-5886 -145 c15 -43 14 -44 -9 -63 -30 -25 -49 -24
-53 1 -5 34 -23 18 -23 -20 0 -21 -5 -34 -12 -33 -23 5 -104 66 -100 77 5 17
139 86 162 83 14 -1 25 -16 35 -45z m-269 -14 l22 -43 -27 -51 c-41 -78 -56
-89 -101 -72 -41 14 -75 50 -75 79 0 12 15 26 39 39 22 11 52 36 67 55 14 19
32 35 40 35 7 0 23 -19 35 -42z m466 -20 c12 -12 27 -36 33 -53 9 -25 8 -31
-6 -42 -30 -22 -72 -16 -90 12 -10 15 -26 25 -40 25 -21 0 -24 -5 -24 -39 0
-48 -8 -71 -25 -71 -17 0 -25 23 -25 73 0 52 3 55 69 100 58 39 68 38 108 -5z
m679 -19 c31 -26 9 -129 -32 -148 -56 -25 -114 -10 -138 37 -19 37 -7 63 46
101 45 33 92 36 124 10z m-1382 -91 c11 -44 6 -65 -28 -104 -31 -35 -36 -38
-62 -29 -23 8 -30 17 -32 43 -3 27 4 40 36 73 45 44 77 51 86 17z m371 -34
c42 -23 56 -38 86 -93 29 -54 34 -72 27 -92 -9 -24 -7 -71 6 -99 4 -10 -3 -19
-23 -28 -40 -17 -81 -73 -89 -122 -6 -33 -16 -45 -62 -77 -61 -43 -100 -94
-100 -131 l0 -25 -25 27 c-44 48 -100 34 -229 -58 -23 -16 -30 -17 -56 -6 -42
17 -60 47 -60 95 0 28 -9 55 -28 85 l-29 45 55 60 c73 79 163 201 208 281 l36
64 63 -6 c69 -7 69 -7 128 70 15 20 31 36 35 36 4 0 29 -12 57 -26z m358 -56
c8 -12 6 -38 -7 -95 -23 -99 -26 -105 -65 -120 -29 -12 -33 -11 -56 11 -33 33
-31 53 5 74 16 9 30 25 30 34 0 30 -12 48 -31 48 -40 0 -9 44 41 59 46 13 71
10 83 -11z m655 -41 c24 -28 31 -64 17 -83 -12 -16 -17 -17 -34 -6 -27 16 -51
15 -51 -2 0 -16 -38 -66 -50 -66 -5 0 -11 14 -15 30 -9 43 21 101 65 122 42
21 54 22 68 5z m5335 -57 c130 -19 160 -59 92 -119 -48 -42 -83 -40 -217 11
-40 15 -36 48 7 87 20 17 39 31 43 31 4 0 38 -5 75 -10z m-119 -278 c96 -108
397 -468 484 -580 92 -120 102 -152 73 -249 -36 -125 -37 -124 111 -280 38
-39 78 -93 89 -119 71 -159 -79 -370 -371 -524 -82 -43 -88 -45 -170 -44 -59
0 -135 11 -250 37 -349 77 -643 129 -696 124 l-52 -5 15 56 c19 74 32 87 104
102 34 7 63 20 68 29 16 29 131 422 166 564 38 154 90 466 135 817 16 129 33
254 36 278 l5 43 92 -87 c51 -47 123 -120 161 -162z m1390 -237 c-124 -263
-222 -481 -217 -485 4 -4 238 30 518 76 281 47 519 83 530 82 14 -2 -53 -59
-229 -195 l-249 -192 -16 32 c-20 40 -47 45 -99 18 -49 -25 -87 -69 -102 -118
-7 -21 -23 -48 -37 -59 -24 -20 -24 -24 -11 -43 13 -18 13 -31 0 -108 -13 -80
-13 -107 7 -333 12 -135 24 -279 27 -320 8 -105 37 -248 75 -365 l32 -100 9
-425 c13 -603 15 -576 -53 -764 -26 -74 -42 -99 -92 -153 -60 -64 -148 -132
-217 -169 -32 -17 -72 -19 -440 -25 -453 -7 -456 -7 -720 -97 -185 -63 -292
-126 -448 -264 -88 -78 -131 -134 -201 -260 -85 -154 -117 -183 -246 -228 -27
-10 -115 -47 -195 -82 -80 -36 -161 -70 -180 -77 -19 -6 -66 -35 -104 -64
-134 -102 -158 -117 -187 -117 -30 0 -55 30 -46 54 10 25 136 106 226 145 156
67 184 93 224 213 4 10 39 39 79 64 83 53 91 62 120 123 15 33 19 55 14 87 -5
41 -3 46 30 76 34 31 97 146 109 199 5 19 -5 47 -35 104 l-41 79 39 56 c44 61
62 113 62 175 0 34 -5 44 -36 68 -51 41 -55 62 -28 122 32 68 30 91 -16 223
l-39 114 15 76 c22 104 15 169 -24 232 l-32 51 30 38 c36 45 50 88 50 158 0
51 1 53 40 73 l41 21 24 -29 c17 -20 47 -37 95 -52 65 -21 76 -22 125 -10 l54
13 27 -32 c15 -18 44 -39 65 -48 25 -10 51 -32 73 -64 56 -77 74 -83 271 -85
l170 -1 35 32 c29 27 50 36 115 48 108 21 125 28 188 85 33 30 68 53 88 56
126 25 133 28 199 91 58 56 70 63 115 68 59 6 86 33 113 117 17 53 20 56 83
87 77 37 134 95 149 154 14 52 9 75 -30 124 -17 21 -29 41 -28 44 2 3 17 35
35 71 47 98 74 186 67 218 -4 15 -20 51 -37 80 -24 43 -28 60 -23 95 3 23 9
76 12 117 l6 75 -41 61 c-23 34 -41 67 -41 73 0 6 16 52 35 101 19 49 35 93
35 98 0 4 -18 35 -40 69 -39 61 -73 83 -126 83 -18 0 -25 8 -33 38 -6 20 -11
57 -11 82 0 57 -53 171 -105 229 -30 33 -44 41 -71 41 -28 0 -36 5 -44 26 -14
35 -12 41 4 19 12 -16 16 -17 30 -6 9 8 14 22 10 35 -2 11 1 28 8 37 17 22
680 531 684 526 2 -2 -98 -219 -222 -482z m-8256 445 c10 -18 23 -28 31 -25
18 7 41 -13 41 -36 0 -11 -24 -43 -52 -73 -57 -58 -130 -93 -171 -82 -30 7
-57 46 -64 91 -4 28 1 39 33 75 50 55 91 80 132 80 26 0 36 -6 50 -30z m928
-125 c31 -8 59 -17 62 -20 3 -3 -8 -20 -25 -38 -17 -17 -39 -48 -48 -67 -10
-19 -30 -49 -46 -67 -15 -17 -32 -40 -37 -50 -9 -15 -14 -13 -51 24 -22 23
-52 60 -67 82 l-26 40 22 35 c47 77 99 92 216 61z m720 -60 c20 -20 25 -34 22
-63 -3 -33 -8 -40 -53 -64 -86 -47 -155 -31 -155 37 0 38 34 79 82 100 48 21
76 18 104 -10z m5758 -12 c3 -16 3 -44 1 -63 -2 -19 -4 -38 -4 -42 -1 -13 -59
-38 -85 -38 -31 0 -108 66 -104 89 3 15 136 78 170 80 10 1 18 -9 22 -26z
m-7412 -119 c41 -76 48 -120 21 -128 -81 -23 -198 -11 -210 22 -7 17 32 102
46 102 6 0 18 -16 27 -35 19 -41 32 -52 39 -32 6 14 -6 50 -27 78 -10 14 -7
21 18 43 16 14 34 24 39 23 6 -2 27 -34 47 -73z m686 -50 c27 -19 28 -49 2
-91 -17 -29 -84 -73 -110 -73 -6 0 -10 28 -10 70 0 69 1 71 33 90 39 24 56 25
85 4z m2523 -21 c-12 -20 -14 -14 -5 12 4 9 9 14 11 11 3 -2 0 -13 -6 -23z
m4311 10 c12 -11 18 -30 18 -58 0 -22 7 -50 15 -61 13 -18 14 -16 15 21 0 47
9 85 20 85 10 0 80 -157 80 -180 0 -24 -46 -60 -76 -60 -29 0 -69 34 -122 103
-48 61 -51 87 -19 134 25 37 42 41 69 16z m-5794 -43 c4 -48 -29 -84 -67 -75
-37 9 -45 20 -37 50 10 38 43 67 74 63 23 -3 27 -8 30 -38z m1451 -59 c-12
-34 -23 -60 -25 -58 -2 2 6 32 17 66 12 34 23 60 25 58 2 -2 -6 -32 -17 -66z
m-2664 -32 c18 -17 18 -23 7 -66 -20 -73 -25 -76 -107 -69 -137 13 -135 12
-135 62 0 23 5 46 10 49 6 3 10 15 10 25 0 27 15 30 110 24 64 -5 90 -11 105
-25z m-557 -27 c7 -21 5 -41 -12 -85 -31 -84 -49 -101 -99 -94 -68 9 -113 83
-72 117 8 6 17 22 21 33 13 45 34 57 95 57 53 0 58 -2 67 -28z m1638 9 c5 -5
20 -11 34 -13 17 -2 26 -10 28 -26 3 -18 -5 -26 -40 -42 -40 -18 -44 -18 -61
-2 -32 29 -37 47 -21 70 16 23 43 29 60 13z m-1456 -20 c0 -5 -8 -22 -17 -39
-19 -33 -12 -62 16 -62 26 0 34 -15 21 -40 -15 -27 -42 -25 -80 6 -28 24 -31
31 -25 68 11 72 14 76 51 76 19 0 34 -4 34 -9z m-537 -20 c13 -5 31 -21 41
-35 16 -25 16 -29 -2 -69 -33 -73 -73 -95 -121 -66 -38 23 -55 62 -46 107 12
62 63 87 128 63z m-212 -67 c-6 -55 -40 -146 -62 -170 -31 -33 -76 -31 -127 6
-37 26 -42 35 -42 69 0 29 7 47 29 70 16 17 34 31 40 31 14 0 14 -25 1 -50 -6
-11 -6 -28 -2 -41 10 -27 21 -17 55 51 17 33 33 48 58 57 45 16 55 12 50 -23z
m3736 4 c-3 -8 -6 -5 -6 6 -1 11 2 17 5 13 3 -3 4 -12 1 -19z m4714 -59 c52
-37 72 -103 49 -163 -13 -36 -86 -86 -124 -86 -45 0 -59 29 -64 132 -4 82 -3
88 21 112 32 32 78 34 118 5z m-6085 -57 c18 -11 44 -81 44 -117 0 -52 -26
-75 -91 -82 -52 -5 -57 -4 -77 22 -28 35 -28 35 5 106 19 40 35 62 53 68 31
12 52 13 66 3z m-2644 -75 c18 -28 -3 -98 -40 -131 -17 -15 -33 -18 -82 -14
-78 6 -87 15 -71 70 16 54 37 78 68 78 26 0 29 -16 11 -55 -15 -33 -4 -43 22
-20 12 11 20 31 20 50 0 17 3 35 7 39 10 10 56 -3 65 -17z m2780 -214 c28 -46
26 -131 -3 -183 -19 -33 -37 -48 -93 -75 -39 -19 -74 -32 -78 -29 -4 3 -8 16
-8 30 0 29 -3 29 -37 7 -24 -16 -26 -16 -39 2 -19 26 -17 61 6 132 26 74 47
95 130 127 80 31 99 30 122 -11z m-3027 -35 c-3 -24 -13 -67 -21 -95 l-15 -53
-63 0 c-44 0 -67 5 -76 15 -18 22 -6 41 32 54 19 6 41 24 50 39 25 42 65 82
83 82 14 0 16 -7 10 -42z m9126 17 c54 -19 108 -60 119 -90 5 -14 5 -37 -1
-58 -20 -75 -91 -112 -170 -88 -65 19 -113 125 -89 196 19 57 60 68 141 40z
m-9362 -282 c12 -23 -19 -148 -43 -171 -16 -16 -18 -16 -36 6 -18 22 -18 24 1
79 32 94 58 123 78 86z m3271 2 c16 -9 33 -27 36 -41 8 -32 -3 -132 -20 -181
-18 -52 -37 -61 -81 -40 -35 17 -37 17 -65 -3 -36 -26 -48 -25 -52 2 -2 16
-12 24 -33 28 -18 3 -35 15 -44 31 -13 24 -13 32 -1 70 18 52 46 86 80 94 22
5 28 1 40 -27 9 -20 26 -37 43 -42 42 -15 51 3 25 50 -12 23 -19 48 -15 57 8
21 48 22 87 2z m6176 -98 c52 -57 94 -131 94 -165 0 -50 -98 -69 -169 -33 -63
33 -64 37 -41 141 11 51 23 97 26 102 13 20 46 4 90 -45z m-9597 -198 c34 -33
39 -66 21 -131 -12 -42 -72 -100 -95 -91 -20 7 -45 55 -45 84 0 12 11 47 24
78 13 31 27 64 30 74 8 25 31 21 65 -14z m3398 -14 c21 -15 43 -69 43 -107 0
-10 -17 -34 -39 -56 -21 -21 -42 -52 -45 -70 -4 -17 -22 -43 -39 -58 -29 -24
-36 -26 -92 -20 -77 8 -89 22 -81 96 15 138 15 138 64 173 82 56 147 71 189
42z m3797 -92 c-109 -235 -113 -253 -59 -253 22 0 35 -5 35 -13 0 -7 -42 -41
-92 -75 -121 -82 -166 -123 -289 -267 -143 -168 -163 -218 -193 -485 -19 -159
-14 -229 39 -588 33 -219 35 -249 35 -485 0 -139 -5 -283 -10 -321 -21 -139
-120 -290 -232 -351 -46 -26 -63 -30 -133 -29 -95 0 -168 28 -214 79 -26 30
-29 42 -36 137 -7 107 1 162 32 222 20 39 87 110 143 151 70 51 121 171 136
322 8 79 -16 140 -117 295 -96 146 -136 224 -176 338 -62 177 -65 253 -18 537
49 300 81 342 320 422 73 24 142 54 175 77 55 37 215 116 475 235 77 35 156
78 175 96 19 18 36 33 37 33 1 0 -14 -35 -33 -77z m2431 -67 c19 -8 41 -28 49
-45 21 -40 21 -119 -1 -143 -25 -27 -85 -24 -122 8 -33 28 -104 152 -95 166
18 29 115 36 169 14z m-9667 -219 c6 -7 14 -31 18 -53 5 -32 1 -51 -20 -92
-25 -49 -29 -52 -64 -52 -45 0 -58 8 -71 43 -20 51 12 76 51 40 18 -16 20 -16
39 4 20 19 20 22 5 50 -8 17 -12 40 -9 51 6 24 35 29 51 9z m3302 0 c36 -18
46 -65 26 -126 -9 -27 -16 -61 -16 -74 0 -46 -29 -67 -104 -78 -61 -8 -71 -7
-89 8 -25 23 -65 92 -67 118 -10 101 15 150 73 140 18 -2 45 1 62 9 38 18 83
19 115 3z m6281 -84 c85 -95 126 -185 100 -217 -15 -18 -145 -58 -174 -54 -12
2 -30 18 -40 36 l-19 32 46 56 c39 48 59 94 41 94 -3 0 -30 -14 -60 -31 -30
-17 -65 -29 -77 -27 -22 3 -20 6 25 54 44 48 96 83 123 84 5 0 21 -12 35 -27z
m-9576 -177 c18 -13 18 -14 0 -38 -11 -13 -30 -32 -43 -42 -22 -17 -24 -17
-43 0 -19 17 -26 44 -10 44 4 0 20 11 35 25 31 29 36 30 61 11z m9407 -63 c22
-25 58 -128 58 -164 0 -40 -25 -86 -50 -94 -27 -8 -76 3 -95 22 -8 8 -15 25
-15 39 0 23 5 29 59 72 l24 19 -21 35 c-25 40 -27 59 -10 76 17 17 32 15 50
-5z m-6335 -32 c38 -23 43 -30 43 -64 0 -21 -7 -51 -15 -67 -13 -25 -22 -30
-52 -30 -33 0 -35 2 -30 28 3 15 9 35 12 44 9 22 -33 47 -46 27 -5 -8 -9 -24
-9 -37 0 -26 -41 -72 -64 -72 -9 0 -16 16 -21 49 -7 53 9 105 44 140 26 26 79
19 138 -18z m-3067 -48 c0 -19 -47 -103 -59 -103 -4 0 -18 12 -32 26 l-24 26
40 34 c43 36 75 44 75 17z m120 -33 c21 -11 41 -24 45 -30 6 -10 -54 -120 -80
-147 -8 -8 -18 -25 -21 -38 -9 -36 -35 -40 -61 -10 -27 31 -29 57 -7 75 21 18
44 76 44 110 0 64 17 72 80 40z m8170 -5 c26 -28 27 -33 12 -183 -8 -79 -14
-100 -39 -135 -43 -62 -70 -58 -106 15 -38 75 -43 122 -22 194 18 64 77 134
112 134 11 0 30 -11 43 -25z m-342 -13 c7 -5 23 -38 36 -74 26 -71 24 -115
-10 -179 -20 -39 -32 -36 -39 9 -8 54 -44 170 -55 177 -5 3 -13 -8 -17 -25
-10 -37 -27 -40 -31 -6 -4 34 13 63 51 86 35 22 46 24 65 12z m1244 -17 c13
-16 28 -25 41 -23 19 3 23 -5 35 -60 13 -59 13 -65 -5 -84 -27 -30 -111 -70
-140 -66 -35 4 -62 43 -69 100 -10 70 0 95 53 128 26 17 51 30 56 30 5 0 18
-11 29 -25z m-1460 -7 c12 -10 17 -34 20 -92 l3 -79 -73 -33 -73 -34 -11 25
c-9 19 -7 29 6 50 16 25 16 28 1 51 -13 20 -22 24 -44 19 -41 -9 -57 14 -36
54 15 31 30 38 95 44 74 8 97 7 112 -5z m-7384 -38 c17 -11 32 -23 32 -27 0
-14 -47 -124 -58 -135 -7 -7 -15 -2 -25 17 l-14 28 -16 -24 c-24 -33 -22 -92
3 -114 24 -21 26 -53 5 -61 -20 -8 -74 14 -84 35 -24 47 -22 90 9 163 59 143
80 159 148 118z m2634 -62 c2 -6 -6 -63 -18 -127 -30 -152 -34 -156 -169 -151
-93 3 -105 11 -105 66 0 44 4 51 54 102 l55 54 50 -7 50 -7 11 41 c9 36 14 41
40 41 15 0 30 -5 32 -12z m7348 -5 c51 -35 53 -57 4 -73 -30 -10 -38 -9 -55 6
-11 10 -19 30 -19 51 0 28 4 33 23 33 12 0 34 -8 47 -17z m-1404 -24 c23 -25
32 -144 14 -179 -17 -32 -92 -61 -163 -63 l-62 -2 -3 35 c-9 95 28 168 107
210 47 25 84 25 107 -1z m-8398 -29 c30 -19 33 -24 27 -53 -4 -18 -16 -48 -25
-67 -10 -20 -21 -53 -25 -73 -6 -30 -4 -37 9 -37 9 0 18 6 20 13 15 52 41 110
57 129 19 23 19 23 35 3 24 -32 -6 -137 -54 -188 -24 -25 -32 -28 -72 -24 -59
7 -93 44 -84 92 3 18 1 42 -5 53 -16 31 4 115 36 146 31 31 38 32 81 6z m8096
-12 c20 -32 29 -89 18 -118 -5 -14 -6 -51 -3 -82 4 -32 3 -66 -2 -75 -14 -26
-49 -63 -59 -63 -15 0 -78 146 -78 180 0 17 6 33 15 36 7 3 21 27 30 52 30 84
34 92 50 92 8 0 21 -10 29 -22z m-7858 -105 c4 -14 2 -34 -5 -44 -21 -34 -13
-40 54 -37 72 3 96 -11 72 -43 -7 -9 -29 -39 -50 -67 -38 -51 -103 -92 -146
-92 -30 0 -71 43 -71 75 0 16 15 42 40 68 28 32 41 56 46 88 4 24 11 52 16 62
13 25 37 21 44 -10z m6654 -32 c25 -47 4 -162 -31 -169 -22 -4 -104 54 -117
83 -16 35 -8 48 46 78 56 32 88 34 102 8z m2855 -141 c8 -16 15 -48 15 -70 0
-34 -3 -41 -17 -38 -15 3 -19 16 -21 71 -2 37 -1 67 2 67 3 0 12 -13 21 -30z
m-9251 -68 c11 -22 13 -47 7 -114 -4 -47 -11 -90 -14 -96 -10 -15 -95 -42
-134 -42 -42 0 -89 23 -104 51 -9 18 -7 26 10 48 12 14 26 37 32 51 26 60 36
75 52 78 25 5 47 -16 47 -44 0 -17 6 -24 19 -24 32 0 51 28 51 76 0 50 13 57
34 16z m1803 0 l22 -17 -30 -85 c-17 -47 -36 -112 -43 -145 -13 -64 -33 -80
-61 -52 -8 9 -34 18 -57 22 -52 9 -117 40 -125 60 -8 22 16 111 43 160 31 55
71 72 174 74 38 0 62 -5 77 -17z m4663 -50 c87 -33 120 -68 120 -127 0 -111
-51 -148 -176 -127 -44 7 -75 19 -90 33 -46 43 -55 149 -19 218 24 47 51 47
165 3z m-2554 -39 c8 -16 35 -64 60 -107 48 -87 54 -127 28 -178 -9 -18 -27
-62 -39 -99 -13 -37 -42 -92 -64 -123 -33 -44 -41 -64 -41 -98 0 -39 -5 -47
-63 -103 -34 -34 -75 -65 -91 -69 -35 -9 -83 18 -109 59 -10 17 -39 62 -63
100 -52 83 -61 120 -45 189 9 39 22 60 55 91 39 37 44 47 59 124 21 105 34
125 94 146 84 30 123 48 155 72 40 29 46 29 64 -4z m728 -113 c22 -17 49 -30
61 -30 29 0 99 -61 120 -106 16 -33 16 -41 1 -103 -8 -36 -20 -86 -25 -111
-12 -55 -49 -140 -60 -140 -18 0 -31 -66 -31 -156 0 -51 -4 -104 -10 -118 -12
-34 -61 -57 -130 -63 l-57 -6 -73 64 c-102 90 -110 107 -110 253 0 109 3 130
36 235 56 181 145 311 214 311 14 0 43 -14 64 -30z m4667 -128 c6 -20 22 -63
35 -95 19 -45 22 -62 14 -78 -13 -23 -49 -39 -91 -39 -33 0 -36 6 -13 31 14
16 14 22 0 72 -16 54 -13 87 13 136 15 28 26 20 42 -27z m-9413 -34 c7 -7 12
-29 12 -50 0 -31 4 -40 24 -48 54 -20 41 -51 -29 -69 -82 -21 -99 8 -64 110
23 69 34 80 57 57z m1595 -19 c28 -33 37 -34 133 -14 31 7 32 6 53 -49 30 -81
28 -98 -20 -141 -36 -32 -45 -36 -73 -30 -37 9 -58 9 -111 0 -60 -10 -77 13
-83 116 -5 80 -5 80 29 115 18 19 36 34 39 34 3 0 18 -14 33 -31z m5073 -48
c50 -23 74 -74 74 -156 l0 -54 -42 -11 c-24 -6 -67 -18 -95 -26 -66 -19 -81
-14 -133 42 -38 41 -42 50 -37 84 2 20 12 53 22 73 29 63 129 85 211 48z
m2666 -169 c12 -15 40 -52 60 -82 l37 -55 -16 -65 c-21 -92 -20 -90 -42 -90
-22 0 -61 56 -61 88 0 15 9 22 30 27 38 8 48 24 26 40 -13 10 -24 10 -46 2
-33 -12 -76 2 -87 29 -7 19 47 133 64 134 6 0 22 -13 35 -28z m-7712 -129 c8
-17 25 -34 37 -37 13 -4 26 -19 33 -40 14 -44 -1 -78 -46 -102 -32 -18 -34
-17 -83 6 -53 24 -101 80 -101 116 0 35 84 96 125 91 11 -1 26 -16 35 -34z
m5036 -69 c25 -12 43 -34 69 -82 19 -37 35 -69 35 -73 0 -4 -39 -29 -87 -55
-76 -40 -96 -47 -143 -47 -71 1 -139 28 -151 60 -30 79 2 133 97 162 35 11 76
27 91 35 36 19 48 19 89 0z m-6722 -131 c19 -39 7 -213 -20 -267 -18 -37 -20
-38 -61 -33 -24 2 -49 10 -57 16 -7 6 -28 46 -46 88 -25 61 -30 83 -23 107 12
44 27 42 41 -6 6 -24 20 -54 31 -68 16 -20 22 -22 34 -11 9 6 20 25 26 41 8
25 6 34 -20 66 -16 20 -29 42 -29 49 0 14 63 44 92 44 10 1 24 -11 32 -26z
m9315 -83 c24 -11 55 -20 70 -20 35 0 74 -40 69 -71 -2 -19 -12 -25 -53 -34
-58 -12 -75 -21 -75 -41 0 -19 45 -18 81 3 36 21 48 10 28 -25 -14 -25 -82
-72 -104 -72 -15 1 -92 120 -110 169 -16 46 -20 93 -8 104 12 13 58 7 102 -13z
m-7450 -103 l34 -69 -19 -46 c-12 -27 -30 -52 -44 -59 -126 -62 -135 -62 -190
-12 -38 35 -38 63 2 145 20 42 32 53 88 82 36 17 72 31 80 30 8 -2 30 -34 49
-71z m8721 -4 c0 -26 -96 -113 -124 -113 -23 0 -56 23 -56 38 0 33 61 76 127
91 44 9 53 6 53 -16z m-10858 5 c19 -16 98 -155 98 -173 0 -15 -60 -55 -83
-55 -13 0 -17 14 -19 67 -3 75 -17 88 -64 62 -32 -17 -30 -35 6 -66 18 -15 30
-34 30 -49 0 -21 -5 -24 -34 -24 -43 0 -62 19 -71 68 -8 51 19 147 48 167 26
18 68 19 89 3z m6900 -75 c65 -34 76 -44 101 -92 15 -30 27 -67 27 -82 0 -34
-67 -109 -98 -109 -24 0 -37 30 -26 63 24 75 -29 198 -63 145 -4 -7 -10 -46
-13 -87 -3 -41 -9 -76 -15 -78 -14 -4 -115 158 -115 185 0 5 17 27 38 50 49
53 69 53 164 5z m-6125 -6 c20 -20 173 -334 173 -355 0 -25 -13 -35 -74 -57
l-49 -19 -26 30 c-14 17 -40 47 -57 66 l-31 36 -2 162 -2 162 28 -6 c15 -4 33
-13 40 -19z m8690 -43 c29 -22 72 -96 88 -151 5 -19 0 -26 -29 -40 -20 -9 -37
-15 -39 -12 -107 129 -140 205 -100 227 20 12 38 6 80 -24z m1198 -74 c38 -40
30 -62 -32 -82 -56 -19 -80 -16 -86 10 -6 27 11 76 33 94 25 20 51 14 85 -22z
m-8451 -50 c34 -13 56 -59 56 -119 l0 -51 -57 -29 c-94 -47 -97 -47 -158 -6
-59 39 -79 66 -71 93 8 25 162 122 193 122 6 0 23 -4 37 -10z m6270 -72 c3
-13 7 -53 11 -90 5 -58 3 -68 -10 -68 -14 0 -15 -8 -10 -55 l7 -55 -36 -15
c-68 -29 -114 -16 -142 38 -40 77 -36 132 11 163 33 21 41 12 51 -60 6 -46 7
-49 21 -30 14 19 13 55 -2 115 -6 23 -2 31 31 53 47 32 62 33 68 4z m-8174 3
c0 -6 -9 -16 -19 -23 -25 -17 -42 -83 -40 -151 1 -30 -1 -59 -5 -66 -20 -32
-138 15 -144 57 -3 19 1 22 32 22 29 0 37 4 42 24 3 13 4 35 2 47 -2 19 -9 24
-33 24 -33 0 -45 25 -24 51 10 12 25 14 63 10 28 -3 58 -2 66 4 19 12 60 13
60 1z m-582 -23 c16 -16 15 -61 0 -76 -10 -10 -8 -20 6 -47 29 -53 40 -44 33
29 -4 46 -2 69 8 82 13 18 15 18 30 3 33 -32 63 -229 47 -299 -5 -21 -15 -36
-25 -38 -18 -4 -22 3 -32 61 -3 20 -10 37 -16 37 -12 0 -108 -71 -131 -96 -9
-11 -21 -36 -26 -56 -9 -33 -8 -38 7 -38 21 0 41 19 41 40 0 9 6 25 14 36 15
19 15 19 30 -1 50 -65 -37 -212 -127 -215 -13 0 -24 13 -34 40 -9 22 -22 40
-28 40 -7 0 -18 7 -26 16 -11 13 -10 19 2 37 10 15 14 52 14 122 1 92 2 100
20 100 14 0 23 -10 30 -33 8 -28 13 -32 33 -27 33 8 72 35 72 49 0 6 -10 27
-21 46 -19 30 -21 43 -15 109 4 42 13 79 19 83 18 12 62 9 75 -4z m7179 -76
c24 -29 43 -61 43 -70 0 -10 -22 -45 -49 -78 -74 -91 -153 -117 -208 -70 -23
20 -28 32 -27 68 1 66 45 143 102 179 64 40 87 36 139 -29z m1245 41 c19 -17
24 -59 9 -82 -6 -10 -3 -19 11 -30 11 -9 22 -34 25 -57 7 -55 -20 -84 -76 -84
-59 0 -101 34 -123 100 -30 87 -23 110 41 143 63 31 87 34 113 10z m1094 -8
c28 -19 48 -69 40 -101 -5 -20 -23 -33 -81 -60 -114 -53 -149 -46 -190 35 -21
41 -14 74 23 99 56 40 169 55 208 27z m-549 -74 c32 -48 30 -83 -8 -115 -35
-30 -69 -41 -98 -31 -28 9 -26 36 4 65 14 13 25 32 25 43 0 18 -2 18 -22 5
-30 -19 -48 -12 -48 17 0 34 37 56 85 53 32 -2 44 -9 62 -37z m1796 4 c48 -20
97 -63 97 -85 0 -16 -9 -19 -52 -22 -47 -3 -53 -6 -56 -26 -3 -18 3 -26 27
-35 17 -6 31 -15 31 -20 0 -13 -92 -48 -119 -45 l-26 3 0 106 c0 140 15 159
98 124z m-9445 -59 c97 -49 170 -134 157 -184 -9 -36 -101 -122 -130 -122 -36
0 -190 75 -209 101 -27 39 -20 79 24 139 22 30 47 65 55 78 9 12 20 22 26 22
5 0 40 -15 77 -34z m-239 -30 c8 -9 9 -41 5 -98 l-7 -84 40 -32 c22 -17 74
-49 116 -72 l75 -41 32 -87 c17 -47 37 -93 43 -101 7 -8 41 -27 77 -43 112
-50 107 -46 114 -100 6 -45 14 -57 63 -106 65 -63 91 -76 193 -92 l75 -12 23
-49 c13 -26 49 -75 81 -107 69 -73 97 -81 211 -60 l79 14 30 -42 c37 -53 115
-111 161 -120 46 -9 116 10 169 47 24 17 45 28 48 25 3 -3 3 -20 -1 -39 -6
-31 -16 -39 -99 -85 -50 -27 -110 -56 -131 -62 -45 -14 -157 -8 -268 15 -78
17 -313 102 -398 145 -85 43 -363 261 -476 374 -108 108 -161 190 -222 346
-45 115 -113 444 -97 470 9 15 51 12 64 -4z m5830 -113 c80 -41 84 -74 25
-182 -45 -84 -125 -101 -227 -50 -58 30 -64 54 -37 146 26 91 32 100 74 113
44 13 103 4 165 -27z m-6499 -18 l34 -35 -17 -67 c-9 -38 -19 -87 -23 -110 -5
-39 -8 -43 -35 -43 -19 0 -42 12 -70 37 l-41 38 6 80 c6 74 9 82 39 107 43 36
66 35 107 -7z m1131 -81 c18 -9 48 -14 72 -12 40 3 43 1 61 -36 18 -36 18 -41
2 -112 -9 -41 -16 -90 -16 -109 0 -19 -5 -46 -12 -61 -12 -25 -15 -26 -66 -20
-30 4 -66 13 -81 21 -30 15 -92 99 -116 157 -13 34 -13 38 2 54 9 9 36 25 60
35 39 16 43 22 43 52 0 30 6 47 17 47 2 0 18 -7 34 -16z m-1838 -91 c18 -31
18 -33 -1 -70 -21 -43 -37 -123 -24 -123 15 0 41 34 53 69 16 47 40 37 56 -24
31 -121 11 -155 -90 -155 l-58 0 -30 68 c-17 37 -39 100 -49 139 -11 40 -24
81 -30 92 -19 37 -12 47 43 57 62 12 101 -4 130 -53z m-249 -87 c40 -49 89
-165 89 -211 0 -21 -10 -37 -34 -57 -18 -16 -38 -27 -44 -25 -5 2 -20 22 -33
45 -20 35 -26 40 -42 32 -14 -8 -17 -18 -13 -55 4 -35 2 -45 -9 -45 -25 0 -85
73 -114 138 -26 60 -27 67 -15 110 17 66 36 92 69 93 15 0 36 4 47 9 41 18 62
10 99 -34z m11307 -24 c14 -36 4 -55 -23 -47 -73 23 -77 94 -5 77 10 -3 23
-16 28 -30z m-10376 -122 c16 -18 18 -52 4 -99 -2 -8 4 -17 13 -19 12 -2 19 5
23 25 12 53 23 70 52 76 36 7 42 -3 32 -63 -10 -65 -60 -130 -100 -130 -45 0
-57 9 -90 67 l-31 55 18 41 c31 73 47 83 79 47z m1395 0 c47 0 120 -98 120
-160 0 -41 -47 -90 -86 -90 -28 0 -125 74 -144 111 -24 43 38 160 76 145 9 -3
24 -6 34 -6z m6196 -177 c9 -34 -2 -107 -22 -150 -17 -34 -68 -75 -110 -87
-27 -8 -84 30 -103 68 -18 39 -1 95 39 125 50 36 149 79 170 74 11 -3 23 -16
26 -30z m-5876 -8 c0 -13 -4 -27 -10 -30 -29 -18 3 -84 35 -71 13 5 14 10 4
27 -8 16 -8 31 0 59 15 50 37 58 56 21 8 -16 32 -37 52 -48 47 -23 73 -71 73
-138 0 -59 -27 -111 -66 -125 -14 -6 -49 -10 -77 -10 -51 0 -53 1 -118 69 -49
50 -71 84 -88 130 -28 73 -25 79 58 121 62 31 81 29 81 -5z m-1490 -35 c31
-17 49 -150 19 -150 -4 0 -20 5 -34 12 -22 10 -25 16 -20 40 6 27 5 28 -30 28
-30 0 -36 -3 -31 -16 3 -9 6 -22 6 -30 0 -8 11 -20 25 -26 16 -7 25 -19 25
-34 0 -43 -41 -43 -94 0 -27 23 -28 26 -21 83 6 56 9 62 43 81 40 23 82 28
112 12z m2734 -21 c24 -19 27 -27 24 -77 -3 -54 -5 -57 -47 -86 -48 -32 -101
-37 -149 -13 -39 18 -39 42 0 59 18 8 49 22 68 31 l35 18 -50 -6 c-27 -3 -67
-14 -88 -26 -37 -19 -40 -19 -58 -3 -11 9 -19 21 -19 25 0 12 68 52 129 76 72
28 121 29 155 2z m7395 -10 c24 -69 9 -109 -40 -109 -25 0 -79 47 -79 69 0 15
78 69 102 71 3 0 11 -14 17 -31z m-8201 -43 c51 -26 71 -63 114 -206 17 -54
-5 -90 -66 -113 -49 -18 -50 -18 -77 2 -14 11 -43 26 -63 35 -60 25 -86 58
-86 111 0 58 17 90 74 143 49 46 63 49 104 28z m5796 -9 c53 -30 84 -72 70
-95 -18 -29 -108 -92 -131 -92 -38 0 -69 67 -59 125 8 40 42 85 64 85 9 0 35
-10 56 -23z m-5490 -2 c38 -11 57 -23 67 -41 13 -24 12 -28 -16 -50 -17 -14
-36 -29 -43 -35 -10 -9 -9 -17 6 -42 16 -27 24 -32 58 -32 35 0 39 -3 42 -28
3 -22 -6 -37 -37 -68 -36 -36 -44 -40 -83 -37 l-43 3 -1 50 c0 28 -6 60 -13
73 -7 12 -9 31 -6 42 3 10 -1 35 -10 55 -18 43 -19 64 -5 99 11 30 15 31 84
11z m4383 -99 c83 -38 64 -76 -37 -76 -44 0 -56 -4 -82 -30 -20 -21 -28 -36
-23 -48 4 -9 9 -32 12 -49 7 -42 -13 -44 -57 -7 -60 51 -75 112 -42 173 40 74
119 87 229 37z m-6536 -41 c46 -35 99 -103 99 -129 0 -29 -53 -137 -78 -160
-21 -18 -50 -17 -79 2 -19 12 -63 146 -63 192 0 57 23 107 52 113 12 2 26 5
29 6 3 0 21 -10 40 -24z m7067 -34 c77 -67 125 -130 120 -158 -1 -10 -23 -28
-48 -41 -41 -21 -53 -23 -135 -17 -49 4 -96 11 -102 17 -22 17 -15 61 23 149
38 87 51 109 65 109 4 0 39 -27 77 -59z m-4649 -6 c20 -23 39 -35 56 -35 15 0
25 -6 25 -15 0 -17 -49 -28 -105 -23 -33 2 -41 7 -43 26 -4 26 16 82 28 82 4
0 22 -16 39 -35z m3721 -55 c5 0 22 -12 39 -26 30 -25 31 -29 31 -101 0 -71
-2 -77 -31 -104 -46 -43 -143 -99 -171 -99 -15 0 -38 13 -57 33 -44 45 -111
146 -111 167 0 12 32 33 108 70 117 58 150 70 170 64 8 -2 17 -4 22 -4z m1660
-25 c94 -48 99 -79 26 -157 -37 -41 -49 -48 -82 -48 -69 0 -174 71 -174 117 0
20 29 53 46 53 6 0 31 -16 54 -35 23 -19 48 -35 55 -35 23 0 27 18 10 43 -19
30 -35 83 -27 91 7 8 37 -1 92 -29z m2319 -19 l52 -53 -25 -63 c-14 -35 -26
-71 -26 -81 0 -29 -22 -34 -42 -9 -13 16 -18 39 -18 86 0 61 -1 64 -19 54 -29
-15 -81 -12 -87 5 -12 31 59 115 96 115 9 0 39 -24 69 -54z m390 -171 c2 -3 2
-6 0 -8 -4 -3 -344 -155 -366 -164 -7 -3 -20 11 -29 30 l-17 35 35 42 c35 40
58 102 58 154 l0 25 157 -55 c87 -30 159 -57 162 -59z m-4179 81 c0 -8 -13
-39 -30 -70 -24 -46 -27 -61 -20 -82 8 -20 4 -39 -24 -98 -55 -119 -138 -195
-363 -329 -156 -94 -227 -125 -324 -143 -46 -8 -108 -22 -136 -30 -62 -19
-107 -13 -196 23 -134 54 -175 82 -241 167 -35 45 -80 97 -100 115 -42 40 -49
84 -16 101 18 10 29 2 94 -66 l73 -77 35 12 c19 6 50 27 68 46 40 42 68 44
101 9 13 -14 36 -32 51 -40 50 -26 71 -18 137 51 33 36 66 65 72 65 7 0 27 -9
45 -21 38 -23 124 -35 179 -25 49 9 109 65 124 115 17 57 43 69 81 37 44 -37
61 -39 141 -16 58 15 80 27 101 52 39 48 68 111 68 149 0 19 4 39 8 45 16 24
72 32 72 10z m-6064 -94 c14 -30 22 -61 19 -72 -9 -29 -95 -100 -121 -100 -34
0 -73 20 -80 42 -4 13 2 28 17 44 21 22 21 25 6 42 -24 27 -21 54 13 100 l30
42 45 -22 c37 -18 50 -32 71 -76z m5478 58 c19 -17 48 -35 65 -41 39 -14 39
-30 1 -95 -54 -94 -155 -157 -216 -134 -35 14 -32 53 6 80 17 12 30 30 30 41
0 28 -36 38 -103 28 -32 -5 -62 -7 -68 -4 -16 10 23 64 72 101 58 43 84 53
136 53 33 1 50 -5 77 -29z m-2441 -101 c0 -13 -10 -49 -21 -80 -11 -31 -30
-96 -42 -146 -15 -64 -27 -93 -42 -102 -25 -15 -28 -12 -62 69 -14 36 -33 78
-41 93 -8 16 -15 35 -15 42 0 20 63 71 104 85 20 6 41 20 47 31 11 21 46 40
64 35 6 -2 9 -14 8 -27z m2063 -4 c27 -13 60 -35 72 -48 22 -23 22 -24 4 -47
-16 -19 -22 -21 -40 -11 -12 6 -26 20 -32 31 -11 21 -35 26 -45 10 -3 -5 1
-25 9 -44 11 -26 21 -35 43 -38 44 -5 42 -35 -3 -54 -53 -22 -96 -11 -134 34
-60 73 -73 148 -33 187 22 23 89 14 159 -20z m-279 -10 c58 -29 81 -66 89
-143 8 -64 -8 -82 -82 -97 -62 -13 -87 -7 -98 21 -10 26 -36 157 -36 182 0 66
43 78 127 37z m2825 -1 c43 -22 41 -54 -5 -102 -36 -38 -96 -72 -127 -72 -43
0 -150 75 -150 106 0 12 74 84 86 84 4 0 24 -20 46 -45 34 -39 42 -43 58 -33
19 12 19 13 0 44 -11 17 -16 34 -13 38 10 10 70 -2 105 -20z m-922 -70 c25
-45 30 -61 22 -78 -12 -26 -124 -88 -145 -80 -8 3 -22 20 -32 38 -18 33 -18
34 9 83 24 43 56 70 113 92 0 1 15 -24 33 -55z m774 -123 c34 -30 2 -186 -43
-210 -49 -27 -151 74 -151 149 0 28 47 78 78 82 43 6 96 -3 116 -21z m2350 23
c20 -8 21 -48 2 -63 -8 -7 -27 -11 -43 -9 -23 2 -29 9 -31 32 -5 39 27 57 72
40z m-9630 -10 c9 -3 21 -24 26 -45 9 -32 8 -46 -4 -71 -22 -44 -20 -59 11
-84 28 -22 28 -22 9 -43 -11 -12 -29 -21 -41 -21 -31 0 -107 62 -133 109 -20
35 -21 45 -12 87 11 48 23 64 48 64 8 0 12 -15 12 -43 0 -40 21 -87 39 -87 16
0 19 39 5 66 -19 35 -18 51 4 63 21 13 17 12 36 5z m2574 -105 c9 -17 36 -61
59 -98 57 -89 56 -141 -4 -141 -17 0 -31 13 -54 50 -17 28 -34 50 -39 50 -5 0
-14 2 -22 5 -7 3 -19 1 -27 -4 -12 -8 -7 -21 27 -73 23 -36 42 -74 42 -86 0
-30 -42 -57 -68 -43 -23 12 -172 243 -172 267 0 13 11 15 67 12 64 -3 67 -2
73 22 6 25 62 70 87 70 8 0 22 -14 31 -31z m-2350 -60 c51 -60 65 -99 37 -99
-16 0 -35 -38 -35 -70 0 -10 20 -43 45 -73 25 -31 45 -58 45 -61 0 -11 -51 -6
-78 8 -39 21 -76 64 -106 124 -18 36 -24 57 -17 65 5 7 12 30 17 52 17 94 44
110 92 54z m6164 -98 c4 -35 5 -68 2 -73 -8 -13 -36 -9 -55 8 -16 14 -19 14
-35 -11 -18 -27 -18 -28 9 -49 15 -12 27 -29 27 -39 0 -40 -130 -65 -164 -31
-22 21 -20 51 6 115 26 67 29 70 103 113 86 50 98 46 107 -33z m-4133 2 c11
-10 50 -65 87 -123 69 -109 73 -131 25 -138 -16 -3 -35 10 -68 47 -49 55 -63
60 -87 35 -14 -14 -14 -19 -1 -51 18 -43 19 -75 3 -91 -22 -22 -44 -12 -81 38
-59 80 -88 139 -81 169 13 55 44 112 66 121 40 15 114 12 137 -7z m5040 -29
c36 -7 51 -34 70 -124 15 -70 0 -94 -71 -115 -76 -22 -111 -8 -144 57 -31 60
-36 130 -13 154 27 27 100 39 158 28z m-6669 -132 c15 -56 12 -93 -11 -131
-18 -31 -23 -33 -57 -26 -58 11 -91 33 -107 71 -29 71 -6 108 40 64 30 -28 51
-21 70 22 7 18 16 36 20 40 14 14 35 -5 45 -40z m1262 -1 c33 -29 122 -191
134 -243 5 -23 0 -30 -35 -54 -37 -24 -44 -26 -66 -14 -13 7 -37 32 -54 55
-31 43 -91 181 -91 208 0 21 48 77 66 77 7 0 28 -13 46 -29z m-943 -29 c33
-28 33 -28 26 -90 -8 -74 -28 -92 -105 -100 -68 -6 -95 3 -125 42 -40 52 -46
86 -24 135 l18 41 88 0 c82 0 91 -2 122 -28z m551 -32 c6 -11 8 -36 4 -55 -4
-25 -1 -43 10 -60 27 -42 56 -28 56 28 0 43 54 74 78 45 12 -16 62 -140 62
-156 0 -17 -30 -30 -86 -37 -43 -6 -56 -3 -114 28 -62 32 -66 37 -79 85 -13
49 -13 54 10 97 26 49 42 56 59 25z m8036 -16 c8 -20 14 -43 12 -52 -5 -21
-44 -20 -93 4 -43 20 -45 51 -5 71 45 23 70 17 86 -23z m-8303 -58 c-5 -48 -3
-55 16 -66 45 -24 65 13 41 76 -6 16 -7 31 -2 36 14 14 69 -38 82 -77 10 -30
9 -40 -10 -74 -25 -44 -83 -81 -128 -81 -32 0 -135 49 -166 80 -19 18 -19 19
8 50 14 17 26 36 26 41 0 9 113 67 132 69 4 0 4 -24 1 -54z m4823 -47 c-3 -67
-17 -84 -102 -130 -49 -27 -69 -21 -77 20 -8 37 -19 38 -72 6 -69 -43 -97 -28
-75 39 12 39 22 43 157 75 50 12 107 28 125 36 18 8 36 14 40 15 4 0 6 -27 4
-61z m-2868 -8 c9 -5 25 -12 36 -15 15 -5 17 -13 12 -44 -13 -73 -48 -171 -70
-191 l-23 -21 -59 30 c-32 16 -64 30 -71 30 -17 0 -113 121 -113 142 0 24 25
35 103 48 36 5 76 14 89 19 30 13 74 13 96 2z m4284 -68 c16 -14 21 -14 57 1
49 19 65 14 81 -25 17 -39 9 -53 -42 -78 -77 -37 -131 -27 -165 31 -31 53 -33
66 -16 83 18 19 57 13 85 -12z m-3885 -87 c28 -24 28 -25 10 -53 -10 -15 -24
-42 -32 -59 -19 -41 -80 -94 -109 -94 -23 0 -96 68 -96 90 0 20 75 92 119 115
58 31 73 31 108 1z m1992 -22 c28 -35 27 -46 -8 -83 -30 -32 -30 -32 -67 -16
-53 22 -67 20 -60 -9 6 -23 3 -25 -39 -32 -25 -3 -48 -4 -51 -1 -13 13 20 79
54 107 79 65 137 77 171 34z m-2641 -48 c74 -37 93 -57 96 -98 2 -20 9 -51 16
-67 15 -36 8 -68 -21 -104 -31 -41 -73 -37 -119 12 -21 22 -56 51 -78 65 -22
14 -43 35 -47 46 -8 25 19 110 46 144 25 32 47 33 107 2z m6466 -8 c8 -13 6
-26 -7 -53 -9 -20 -17 -49 -17 -65 0 -36 -16 -47 -40 -25 -29 26 -29 49 -2
110 26 57 44 67 66 33z m-1736 -7 c48 -24 63 -43 96 -119 18 -40 26 -75 24
-100 -3 -33 -6 -37 -33 -40 -46 -4 -114 45 -154 111 -44 75 -62 127 -50 149
13 24 69 23 117 -1z m-4349 -124 l30 -59 -18 -36 c-10 -21 -21 -57 -24 -82 -5
-38 -1 -55 26 -107 l32 -63 -22 -15 c-12 -8 -31 -43 -42 -77 -12 -35 -25 -68
-29 -74 -9 -14 -72 -46 -140 -70 -69 -24 -87 -42 -106 -109 l-17 -55 -72 0
c-81 0 -117 -17 -209 -99 -42 -38 -48 -48 -48 -83 0 -37 -3 -41 -40 -56 -28
-12 -41 -25 -45 -44 -4 -14 -22 -48 -41 -75 -28 -40 -34 -57 -34 -101 0 -29 5
-62 10 -72 8 -16 5 -28 -16 -60 -23 -34 -26 -47 -21 -92 3 -29 8 -62 12 -73 5
-17 -2 -25 -34 -43 -54 -31 -71 -57 -71 -112 0 -87 57 -138 197 -180 76 -22
79 -25 86 -90 1 -17 -3 -24 -13 -23 -47 7 -327 100 -341 114 -20 20 -135 41
-176 33 -17 -3 -70 2 -118 11 -129 26 -203 17 -345 -40 -63 -26 -136 -60 -161
-76 -51 -32 -70 -31 -88 7 -6 14 -25 30 -42 36 -91 31 -206 97 -236 135 -31
39 -55 50 -150 68 -22 4 -35 15 -43 36 -19 46 -56 69 -108 69 -39 0 -49 5 -76
36 -75 88 -132 135 -189 156 -57 21 -76 38 -109 96 -9 17 -41 47 -71 67 -52
34 -58 36 -110 30 -69 -9 -99 6 -162 79 -41 49 -50 54 -76 49 -30 -6 -40 7
-54 70 -3 16 -24 48 -46 72 -31 33 -51 46 -87 54 -48 10 -52 13 -115 101 -19
26 -55 57 -87 75 -70 39 -84 80 -55 153 12 32 18 67 16 111 -3 84 11 116 60
135 58 23 75 20 99 -19 38 -61 64 -75 142 -75 38 0 78 5 90 11 25 13 26 12 37
-46 7 -36 19 -58 50 -89 l41 -41 58 21 c31 12 72 28 90 35 33 14 35 13 60 -18
15 -17 36 -46 47 -65 34 -56 134 -95 191 -75 18 6 30 -3 75 -59 65 -79 94 -96
169 -96 68 0 95 15 130 72 14 22 27 40 31 40 3 0 20 -18 37 -39 30 -38 35 -40
109 -47 98 -10 97 -10 161 33 64 43 98 46 125 8 26 -35 74 -55 133 -55 37 0
58 8 100 35 29 20 57 42 61 50 7 11 21 8 78 -21 77 -39 115 -41 130 -7 14 33
32 36 66 10 30 -22 31 -22 45 -3 8 11 14 25 14 32 0 9 15 11 54 7 70 -7 117 9
163 58 46 49 97 72 139 64 42 -7 205 74 240 120 19 26 34 33 70 38 56 6 147
65 170 109 31 62 42 68 98 62 47 -5 53 -4 78 23 41 43 55 108 36 165 l-16 46
38 17 c24 11 49 15 64 11 20 -5 29 -1 42 19 21 32 29 26 73 -58z m-3672 32
c32 -12 64 -26 71 -32 15 -12 16 -93 1 -155 -11 -43 -42 -92 -60 -92 -3 0 -10
35 -13 78 -9 102 -11 107 -51 131 -27 16 -35 27 -35 49 0 49 6 50 87 21z
m4989 -40 c64 -45 75 -57 99 -106 27 -55 -11 -94 -106 -108 -39 -6 -50 -4 -72
17 -15 12 -28 34 -29 48 -3 23 1 25 37 26 85 3 83 2 47 34 -19 18 -43 30 -60
30 -32 0 -72 25 -72 45 0 15 58 55 81 55 9 0 42 -19 75 -41z m661 -14 c12 -22
23 -46 23 -53 0 -14 -67 -46 -116 -55 -42 -8 -63 9 -75 63 -8 35 -7 46 3 49 7
3 33 13 58 22 64 24 81 20 107 -26z m-5807 -39 c0 -43 12 -63 45 -75 42 -15
62 -38 47 -53 -8 -8 -34 -4 -94 12 -132 38 -143 56 -76 134 l42 49 18 -23 c10
-12 18 -32 18 -44z m4141 28 c7 -9 40 -37 74 -62 69 -53 75 -59 75 -89 0 -26
-45 -65 -120 -103 -82 -41 -119 -46 -161 -21 -19 12 -50 21 -70 21 -20 0 -41
6 -47 13 -9 11 -16 64 -13 109 2 34 93 98 186 130 62 21 60 21 76 2z m-3594
-60 c21 -47 25 -66 20 -116 -8 -86 -25 -102 -101 -93 -70 8 -112 27 -121 55
-14 45 107 210 154 210 17 0 28 -12 48 -56z m2734 8 c102 -67 101 -66 83 -137
-18 -67 -40 -115 -54 -115 -18 0 -120 41 -126 51 -3 5 1 20 9 32 27 42 40 96
27 112 -10 12 -17 9 -45 -20 -56 -60 -80 -37 -45 41 23 54 47 84 65 84 7 0 46
-22 86 -48z m2193 28 c21 -8 86 -99 86 -122 0 -3 -12 -21 -26 -38 -21 -25 -33
-30 -58 -28 -28 3 -31 6 -34 43 -4 49 -25 67 -69 59 -28 -5 -34 -3 -44 20 -9
20 -9 32 -1 51 10 22 18 25 66 25 30 0 66 -4 80 -10z m4201 -111 c36 -59 36
-59 18 -89 -24 -41 -39 -38 -55 12 -8 23 -19 43 -25 45 -12 4 -63 -78 -63
-101 0 -19 -13 -20 -41 -6 -27 15 -26 91 1 135 21 35 93 77 115 69 7 -3 29
-32 50 -65z m-9823 34 c14 -16 44 -56 65 -89 31 -48 42 -58 49 -47 18 29 46
20 60 -19 7 -20 23 -51 36 -68 19 -26 20 -32 8 -40 -34 -22 -122 -3 -167 34
-15 13 -45 31 -66 41 -22 10 -43 28 -47 39 -7 17 -9 18 -9 4 -1 -10 -7 -18
-15 -18 -15 0 -56 96 -56 132 0 18 2 19 17 7 9 -8 24 -32 34 -54 l19 -40 0 53
c0 91 26 114 72 65z m8803 -63 c43 -68 52 -90 39 -103 -9 -9 -56 11 -81 35
l-21 20 -57 -21 c-98 -37 -119 -27 -131 62 -8 55 9 64 78 41 l49 -16 20 26
c33 42 53 33 104 -44z m-5625 -39 c22 -44 54 -96 71 -116 19 -21 29 -41 25
-51 -8 -21 -129 -74 -185 -80 -69 -8 -81 6 -88 99 l-6 77 50 53 c28 29 54 63
57 75 13 40 35 23 76 -57z m-2244 50 c35 -16 47 -30 74 -85 40 -80 36 -93 -41
-153 -71 -55 -98 -61 -133 -31 -30 26 -45 77 -46 152 0 31 -6 56 -16 67 -50
55 70 92 162 50z m8582 -108 c30 -21 61 -50 70 -65 15 -25 15 -30 -1 -63 -11
-23 -24 -35 -37 -35 -11 0 -20 4 -20 10 0 12 -59 80 -70 80 -4 0 -14 -18 -23
-40 -12 -31 -21 -40 -40 -40 -30 0 -77 42 -77 69 0 30 37 108 57 120 29 18 84
4 141 -36z m-8294 15 c38 -54 9 -255 -44 -303 -18 -16 -19 -16 -37 6 -10 12
-30 36 -45 54 -37 43 -35 61 8 87 l35 21 -30 18 c-35 21 -49 62 -30 85 18 22
80 53 106 54 12 0 29 -10 37 -22z m7926 -16 c31 -19 52 -41 67 -72 33 -71 36
-97 13 -120 -35 -35 -55 -26 -79 38 -24 65 -56 111 -68 98 -4 -4 -7 -37 -6
-72 2 -35 0 -64 -5 -64 -13 1 -61 44 -87 80 -35 47 -31 114 9 143 20 14 110
-3 156 -31z m-6258 -39 c8 -10 35 -55 59 -100 43 -81 43 -83 24 -98 -73 -57
-206 -93 -240 -65 -21 17 -58 144 -50 170 8 24 69 65 135 91 56 22 54 22 72 2z
m-2898 -27 c28 -13 88 -41 134 -61 97 -45 101 -58 40 -115 -63 -58 -78 -54
-90 25 -2 11 -12 21 -24 23 -18 3 -23 -4 -28 -33 -14 -75 -66 -48 -66 34 0 25
-9 66 -20 90 -18 39 -19 61 -3 61 3 0 29 -11 57 -24z m4216 -1 c17 -9 30 -20
30 -26 0 -6 9 -1 20 12 l21 24 -4 -65 c-3 -69 -37 -154 -69 -174 -22 -14 -84
15 -93 44 -6 17 -12 20 -41 14 -31 -6 -34 -4 -34 18 0 42 30 127 52 148 26 24
77 26 118 5z m-2681 -52 c17 -21 38 -57 47 -80 11 -29 23 -43 35 -43 50 0 62
-30 35 -94 -21 -50 -104 -88 -182 -84 -52 3 -59 6 -62 25 -4 25 31 53 65 53
26 0 43 27 43 69 0 42 -18 39 -61 -11 -34 -40 -39 -42 -65 -33 -44 16 -44 54
2 129 72 118 94 129 143 69z m1020 -29 c17 -4 42 -17 56 -30 21 -19 25 -32 25
-76 0 -60 -13 -115 -34 -143 -12 -17 -15 -18 -47 -3 -19 9 -53 21 -77 28 -68
18 -83 39 -76 108 7 62 23 88 69 108 35 15 42 16 84 8z m-684 -20 c8 -4 23
-20 31 -36 14 -26 20 -29 46 -24 59 12 117 -47 97 -100 -10 -28 -50 -59 -104
-80 -41 -15 -47 -15 -69 -1 -33 22 -40 50 -22 86 30 56 13 66 -49 30 -40 -24
-55 -18 -81 32 -21 41 -18 68 9 73 31 7 111 24 119 25 3 1 14 -2 23 -5z m367
-31 c37 -35 35 -50 -7 -67 -35 -15 -35 -15 -22 -48 10 -25 19 -32 35 -30 12 1
32 3 45 5 16 1 23 -4 25 -19 4 -26 -50 -74 -83 -74 -45 0 -122 125 -111 180
15 79 67 102 118 53z m7159 -4 c19 -6 40 -13 47 -15 8 -2 -8 -35 -49 -96 -34
-51 -63 -94 -65 -96 -1 -2 -52 30 -113 71 l-112 74 44 6 c23 3 74 20 112 36
79 34 88 35 136 20z m-5352 -126 l31 -57 -16 -51 c-21 -62 -48 -118 -69 -139
-25 -24 -68 -20 -96 10 -13 14 -36 32 -52 40 -34 18 -87 90 -87 118 0 22 77
95 128 122 15 7 50 14 79 14 l51 0 31 -57z m-3691 -105 c4 -22 -55 -88 -79
-88 -11 0 -21 9 -25 24 -10 41 0 60 36 73 44 15 64 12 68 -9z m85 -92 c-3 -40
-28 -64 -51 -50 -41 26 -16 89 33 82 15 -2 20 -10 18 -32z m3321 -12 c67 -45
68 -46 61 -82 -12 -64 -49 -144 -76 -165 -17 -12 -50 -21 -93 -24 l-66 -6 -44
44 c-40 41 -44 50 -51 110 -4 37 -4 76 -1 87 8 23 133 81 176 82 14 0 56 -21
94 -46z m-3619 -54 c38 -30 91 -50 134 -50 49 0 140 -135 111 -164 -6 -6 -38
-3 -87 9 -130 30 -126 28 -150 78 -12 25 -34 54 -48 63 -38 25 -47 47 -29 72
20 28 24 28 69 -8z m398 -48 c25 -26 26 -30 12 -48 -22 -29 -18 -33 23 -23 30
7 42 5 62 -10 51 -37 24 -68 -63 -70 -32 -1 -39 3 -50 27 -6 15 -15 29 -19 32
-4 3 -11 25 -17 49 -16 74 5 92 52 43z m2937 -104 c19 -13 62 -56 97 -95 76
-87 81 -115 26 -134 -39 -13 -142 -7 -206 11 -45 13 -117 75 -117 100 0 21
137 140 161 140 3 0 21 -10 39 -22z m3892 -49 c15 -29 27 -60 27 -67 1 -21
-79 -5 -106 21 -13 11 -23 15 -23 9 0 -6 9 -16 20 -22 35 -19 23 -39 -35 -55
-30 -9 -67 -15 -82 -13 -24 3 -28 8 -31 38 -4 59 15 81 103 116 44 18 85 32
90 30 6 -1 22 -27 37 -57z m-514 -6 c5 -10 13 -39 16 -65 9 -57 -4 -62 -62
-23 -44 30 -52 31 -52 6 0 -11 14 -29 31 -41 29 -22 30 -23 12 -42 -61 -69
-203 -60 -234 14 -26 64 15 107 138 144 96 28 139 30 151 7z m-6082 -49 c21
-31 9 -47 -31 -42 -39 4 -56 35 -31 54 28 20 43 18 62 -12z m97 -68 c23 -18
22 -33 -3 -41 -25 -8 -70 19 -70 40 0 19 48 20 73 1z m143 -78 c-1 -70 -14
-82 -52 -47 -32 30 -31 62 4 88 43 32 49 27 48 -41z m6642 30 c25 -25 5 -133
-30 -165 -17 -15 -22 -15 -73 1 -35 11 -55 23 -55 32 0 17 120 144 136 144 5
0 15 -5 22 -12z m-6529 -45 c6 -21 11 -44 11 -50 0 -18 -77 -56 -85 -42 -10
14 4 79 21 107 21 33 42 27 53 -15z m5211 16 c58 -12 70 -28 70 -91 0 -59 -21
-84 -82 -103 -94 -28 -193 -14 -204 29 -7 28 9 100 30 131 27 41 96 53 186 34z
m-2925 -55 c33 -33 51 -86 47 -136 -2 -22 -75 -64 -125 -73 -35 -7 -40 -4 -77
36 -36 40 -40 49 -40 96 0 76 20 93 109 93 50 0 74 -4 86 -16z m-2135 -119 c0
-29 -25 -43 -48 -28 -25 15 -25 29 0 41 36 17 48 14 48 -13z m82 -41 c-2 -10
-10 -26 -18 -34 -12 -13 -17 -12 -35 7 l-21 21 28 16 c35 18 50 15 46 -10z
m214 -119 c19 -29 13 -41 -23 -48 -31 -6 -53 7 -53 32 0 43 51 54 76 16z
m4405 5 c10 -6 33 -38 50 -72 37 -73 33 -80 -61 -98 -126 -24 -131 -24 -183 9
-41 27 -46 34 -37 50 5 11 15 23 20 26 6 3 10 15 10 25 0 47 145 90 201 60z
m-2677 -32 c12 -29 14 -30 15 -10 1 36 31 40 58 7 52 -60 4 -120 -97 -120 -68
0 -95 19 -126 87 -18 39 -18 41 1 54 11 8 43 14 77 14 56 0 58 -1 72 -32z
m4366 -17 c31 -59 -13 -111 -68 -80 -40 22 -40 52 0 78 41 26 54 26 68 2z
m-852 -102 c50 -25 145 -117 162 -160 7 -16 10 -35 6 -44 -12 -32 -221 -10
-281 29 -21 14 -55 104 -55 146 0 13 8 32 17 43 22 24 84 18 151 -14z m-5028
-11 c26 -43 25 -58 -2 -58 -27 0 -78 47 -78 72 0 13 8 18 30 18 23 0 35 -7 50
-32z m1702 -13 c11 -51 25 -67 48 -55 32 17 50 12 50 -14 0 -70 -37 -102 -106
-91 -39 5 -47 11 -64 45 -11 22 -20 50 -20 64 0 28 56 99 74 93 6 -2 14 -21
18 -42z m2091 19 c61 -20 87 -54 87 -110 0 -87 -21 -95 -80 -32 -38 42 -39 42
-59 24 -29 -26 -27 -31 20 -49 33 -13 40 -20 36 -36 -3 -11 0 -22 7 -24 19 -8
-43 -27 -85 -27 -22 0 -49 5 -60 10 -24 13 -59 81 -59 115 0 28 57 97 105 127
36 22 31 22 88 2z m1972 -57 c8 -13 20 -38 26 -57 12 -33 11 -35 -34 -75 -43
-37 -50 -40 -104 -40 -77 1 -103 16 -103 59 0 35 24 66 39 50 5 -5 19 -26 33
-47 l25 -38 16 24 c8 13 21 44 27 68 12 43 35 79 51 79 5 0 15 -10 24 -23z
m-5507 -83 c56 -37 63 -49 32 -59 -44 -14 -145 32 -170 79 -31 60 31 51 138
-20z m5156 37 c45 -16 50 -21 72 -76 14 -33 23 -69 22 -80 -4 -27 -89 -76
-142 -82 -56 -7 -88 12 -116 67 -26 50 -25 74 2 113 56 83 73 89 162 58z
m-3364 -21 c12 -12 25 -33 31 -48 9 -23 7 -29 -11 -44 -31 -25 -41 -23 -89 18
l-43 37 4 -29 c3 -26 42 -63 81 -77 22 -8 -1 -19 -55 -27 -60 -9 -49 -13 34
-14 32 -1 58 -5 59 -11 4 -20 -101 -67 -162 -72 -65 -6 -63 -9 -60 67 2 37 19
143 27 173 14 46 145 66 184 27z m-1313 -54 c31 -31 51 -59 48 -67 -5 -14
-131 -93 -166 -104 -26 -8 -36 19 -19 51 11 19 11 27 2 36 -22 22 -13 66 19
103 17 19 38 35 47 35 8 0 39 -24 69 -54z m-161 8 c-4 -13 -9 -52 -13 -86 -3
-35 -10 -71 -15 -82 -9 -17 -13 -15 -48 19 -20 20 -44 48 -51 62 -13 24 -11
27 36 68 57 49 100 58 91 19z m1690 -14 c24 -49 55 -160 50 -178 -3 -9 -26
-28 -50 -42 -51 -27 -51 -40 0 -40 28 0 36 -5 45 -27 12 -33 3 -97 -16 -113
-27 -22 -120 46 -163 119 l-26 44 40 36 c21 20 59 53 84 74 l45 38 -67 -32
c-78 -38 -98 -32 -98 30 0 46 5 52 65 90 57 36 74 36 91 1z m1162 -62 c18 -18
14 -35 -15 -62 -35 -33 -26 -40 27 -21 56 20 70 14 70 -27 0 -59 -19 -81 -85
-98 -33 -9 -70 -21 -81 -28 -26 -14 -34 -7 -34 29 0 16 -7 47 -16 69 -20 50
-14 66 44 114 46 38 70 44 90 24z m-2438 -26 c66 -21 77 -39 82 -137 l3 -69
-69 -18 -69 -19 -37 25 c-26 17 -51 49 -79 101 -55 102 -54 110 13 126 50 12
98 9 156 -9z m246 -72 c32 -20 58 -75 66 -139 3 -23 5 -22 32 17 16 23 34 42
41 42 7 0 18 -26 25 -61 16 -76 12 -80 -90 -77 l-75 3 -20 60 c-15 45 -25 60
-39 60 -11 0 -23 9 -27 20 -10 25 -11 80 -2 88 13 13 56 7 89 -13z m1280 -75
c11 -46 11 -53 -9 -85 -13 -21 -26 -66 -32 -113 -5 -43 -14 -79 -20 -80 -16
-3 -75 123 -75 160 0 68 19 117 58 145 20 15 43 27 51 25 8 -1 20 -24 27 -52z
m-880 1 c26 -19 76 -129 72 -159 -2 -15 -11 -23 -27 -25 -32 -5 -51 21 -51 67
0 20 -12 54 -25 76 -14 22 -25 43 -25 48 0 12 34 8 56 -7z m1337 -33 c6 -36
59 -113 77 -113 5 0 2 21 -7 46 -14 41 -14 47 0 61 21 22 45 9 96 -49 43 -51
43 -52 39 -116 -4 -58 -7 -68 -33 -86 -15 -12 -44 -34 -64 -51 -35 -28 -41
-30 -106 -25 l-70 5 -37 70 c-47 88 -57 145 -33 183 22 33 106 111 121 112 6
0 14 -17 17 -37z m-3010 -96 c310 -151 367 -196 367 -292 0 -87 -72 -155 -165
-155 -67 0 -134 26 -388 149 l-226 109 49 106 c64 138 99 206 105 206 3 0 119
-55 258 -123z m2715 111 c16 -20 62 -166 57 -180 -8 -21 -44 -40 -119 -64 -53
-16 -75 -19 -92 -12 -33 15 -36 34 -18 107 15 60 22 71 72 114 56 48 82 57
100 35z"/>
<path d="M9320 15221 c0 -22 37 -38 52 -23 17 17 1 42 -27 42 -18 0 -25 -5
-25 -19z"/>
<path d="M8587 14989 c-14 -8 -16 -14 -6 -25 14 -17 28 -18 66 -3 27 10 27 11
9 25 -23 16 -44 17 -69 3z"/>
<path d="M7680 14041 c-5 -11 -6 -22 -2 -25 11 -6 52 21 52 35 0 17 -39 9 -50
-10z"/>
<path d="M13095 13760 c-3 -5 3 -10 14 -10 12 0 21 5 21 10 0 6 -6 10 -14 10
-8 0 -18 -4 -21 -10z"/>
<path d="M6912 13558 c-15 -15 -15 -29 -2 -64 l11 -27 28 34 c22 26 27 38 20
52 -11 20 -40 22 -57 5z"/>
<path d="M7692 13518 c-7 -7 -12 -16 -12 -20 0 -15 27 -8 45 12 18 19 17 20
-1 20 -11 0 -25 -5 -32 -12z"/>
<path d="M6471 13210 c-9 -28 -8 -30 13 -30 23 0 36 17 36 46 0 27 -38 15 -49
-16z"/>
<path d="M5976 13161 c-15 -16 -23 -61 -10 -61 20 0 44 24 44 45 0 32 -14 39
-34 16z"/>
<path d="M5653 13125 c-18 -37 -17 -37 6 -57 22 -17 26 -17 33 -3 13 21 6 88
-9 92 -7 3 -20 -12 -30 -32z"/>
<path d="M13901 12997 c-10 -13 -9 -21 3 -46 9 -16 20 -33 26 -36 15 -9 12 58
-3 79 -12 16 -14 16 -26 3z"/>
<path d="M7824 12905 c-17 -26 -12 -45 11 -45 19 0 37 34 29 54 -9 23 -21 20
-40 -9z"/>
<path d="M7882 12631 c-42 -74 -19 -132 35 -87 16 13 35 35 42 49 13 24 11 28
-15 51 -16 14 -32 26 -35 26 -3 0 -15 -17 -27 -39z"/>
<path d="M14082 12611 c-11 -6 -6 -14 17 -30 34 -25 41 -15 14 18 -12 14 -22
18 -31 12z"/>
<path d="M14159 12232 c13 -24 51 -58 51 -45 0 6 -9 22 -21 37 -23 30 -45 36
-30 8z"/>
<path d="M4536 12058 c-20 -48 -20 -58 2 -58 39 0 54 40 28 76 -14 18 -15 17
-30 -18z"/>
<path d="M7837 12003 c-4 -3 -7 -24 -7 -45 0 -46 19 -58 55 -34 34 22 34 63
-1 76 -30 12 -38 12 -47 3z"/>
<path d="M7713 11643 c-19 -7 -16 -37 8 -67 22 -29 45 -32 72 -12 25 19 21 32
-16 60 -34 26 -42 29 -64 19z"/>
<path d="M12787 11163 c-10 -9 -9 -43 2 -43 5 0 11 6 14 13 6 17 -7 40 -16 30z"/>
<path d="M7376 11011 c-17 -18 -17 -20 3 -40 17 -17 25 -19 51 -10 38 14 44
23 30 49 -14 26 -61 26 -84 1z"/>
<path d="M13403 11006 c4 -10 7 -24 7 -32 0 -8 5 -14 11 -14 15 0 6 53 -10 58
-10 3 -12 0 -8 -12z"/>
<path d="M7220 10635 c-20 -24 -8 -50 26 -53 34 -3 70 28 61 53 -8 20 -70 20
-87 0z"/>
<path d="M12019 10561 c-13 -11 -21 -22 -18 -26 8 -7 79 26 79 37 0 15 -38 8
-61 -11z"/>
<path d="M9326 10431 c-44 -14 -52 -21 -72 -66 -13 -27 -30 -94 -38 -148 -14
-98 -14 -99 11 -155 14 -32 26 -58 28 -60 2 -2 21 6 43 17 45 23 103 89 156
176 34 56 36 65 36 143 l0 83 -35 15 c-41 17 -64 16 -129 -5z m92 -73 c31 -31
-4 -93 -50 -86 -33 4 -35 41 -4 73 28 28 37 30 54 13z"/>
<path d="M10120 10393 c-41 -41 -49 -57 -59 -108 -6 -33 -22 -96 -36 -140 -29
-96 -30 -158 -3 -203 36 -59 92 -51 136 20 26 43 142 384 142 419 0 39 -29 59
-85 59 -44 0 -52 -4 -95 -47z"/>
<path d="M12011 10176 c-17 -21 2 -29 50 -21 23 4 38 12 36 18 -6 18 -72 20
-86 3z"/>
<path d="M7078 9953 c-21 -5 -23 -26 -5 -41 18 -15 57 4 57 28 0 20 -13 23
-52 13z"/>
<path d="M12000 9810 c0 -20 46 -33 69 -21 12 7 19 16 16 22 -8 12 -85 12 -85
-1z"/>
<path d="M7207 9612 c-10 -10 -17 -27 -17 -36 0 -15 5 -17 27 -11 36 9 37 9
29 40 -8 30 -17 31 -39 7z"/>
<path d="M5930 9352 c0 -27 20 -82 30 -82 13 0 22 37 15 60 -3 11 -15 25 -26
30 -16 9 -19 7 -19 -8z"/>
<path d="M7312 9284 c-23 -16 -29 -48 -11 -59 5 -4 21 -4 35 -1 21 6 25 12 22
38 -4 38 -16 44 -46 22z"/>
<path d="M11940 9100 c20 -13 40 -13 40 0 0 6 -12 10 -27 10 -22 0 -25 -2 -13
-10z"/>
<path d="M13220 9165 c24 -25 54 -33 64 -16 3 5 -12 16 -34 25 -54 21 -58 20
-30 -9z"/>
<path d="M14237 9153 c-3 -5 -1 -19 5 -32 8 -23 10 -23 25 -8 13 13 14 19 3
31 -14 17 -26 20 -33 9z"/>
<path d="M6096 9058 c-3 -13 -6 -28 -6 -35 0 -13 27 -43 40 -43 17 0 40 32 40
55 0 43 -63 62 -74 23z"/>
<path d="M11625 8901 c-8 -14 44 -51 71 -51 30 0 31 24 2 44 -25 18 -64 21
-73 7z"/>
<path d="M5213 8895 c-14 -16 -18 -65 -5 -65 17 0 32 25 32 52 0 31 -8 35 -27
13z"/>
<path d="M6404 8735 c-8 -20 23 -55 48 -55 26 0 22 13 -12 44 -25 22 -31 24
-36 11z"/>
<path d="M4207 8623 c-10 -9 -8 -56 2 -72 8 -12 13 -12 35 3 30 19 29 17 16
50 -9 25 -38 35 -53 19z"/>
<path d="M6600 8474 c0 -16 23 -44 35 -44 18 0 18 5 5 31 -10 17 -40 27 -40
13z"/>
<path d="M12747 8298 c-15 -11 -16 -16 -5 -31 11 -15 16 -16 31 -5 15 11 16
16 5 31 -11 15 -16 16 -31 5z"/>
<path d="M5526 7994 c-8 -31 -3 -39 19 -31 19 8 20 57 1 57 -8 0 -17 -12 -20
-26z"/>
<path d="M12546 7972 c-3 -6 2 -20 12 -32 14 -18 25 -21 45 -16 22 5 25 10 18
29 -9 23 -64 37 -75 19z"/>
<path d="M11582 7865 c-19 -8 -32 -20 -30 -27 7 -21 59 -42 77 -31 21 13 27
53 9 64 -17 11 -17 11 -56 -6z"/>
<path d="M8737 7633 c-4 -3 -7 -20 -7 -36 0 -25 2 -28 15 -17 8 7 15 23 15 36
0 23 -10 31 -23 17z"/>
<path d="M10625 7608 c4 -13 11 -27 16 -32 15 -16 20 0 10 28 -13 32 -35 36
-26 4z"/>
<path d="M13244 7456 c-6 -17 2 -36 17 -36 12 0 12 37 -1 45 -6 3 -13 -1 -16
-9z"/>
<path d="M8202 7180 l-23 -30 26 -12 c35 -16 60 0 60 38 0 42 -34 44 -63 4z"/>
<path d="M13262 7158 c6 -18 54 -51 68 -46 16 5 -34 58 -55 58 -9 0 -15 -5
-13 -12z"/>
<path d="M6882 7073 c-13 -3 -19 -9 -16 -15 4 -6 7 -26 6 -44 -1 -28 4 -37 28
-49 16 -8 36 -15 44 -15 21 0 30 43 16 72 -15 28 -41 58 -49 57 -3 -1 -16 -4
-29 -6z"/>
<path d="M9102 6817 c-15 -18 -5 -27 30 -27 23 0 29 4 26 18 -4 21 -41 28 -56
9z"/>
<path d="M9485 6669 c-4 -6 -4 -13 -1 -16 8 -8 36 5 36 17 0 13 -27 13 -35 -1z"/>
<path d="M8954 6616 c-6 -16 12 -56 26 -56 27 0 39 13 30 31 -16 28 -49 43
-56 25z"/>
<path d="M13722 6578 c-8 -8 -9 -15 -1 -25 17 -20 29 -15 29 12 0 27 -9 32
-28 13z"/>
<path d="M9550 6410 c-11 -7 -9 -11 13 -19 35 -14 97 -14 97 -1 0 25 -79 40
-110 20z"/>
<path d="M6000 6390 c-13 -8 -11 -13 8 -32 l22 -22 0 26 c0 31 -10 40 -30 28z"/>
<path d="M8481 6236 c-12 -14 -5 -46 9 -46 9 0 20 25 20 46 0 18 -14 18 -29 0z"/>
<path d="M6254 6309 c-3 -6 3 -20 14 -32 19 -19 22 -19 28 -4 13 35 -23 66
-42 36z"/>
<path d="M9513 6113 c-7 -2 -13 -9 -13 -14 0 -13 50 -31 68 -24 12 5 12 9 -3
25 -18 20 -29 23 -52 13z"/>
<path d="M7910 5979 c0 -27 2 -30 15 -19 8 7 15 21 15 31 0 11 -7 19 -15 19
-10 0 -15 -10 -15 -31z"/>
<path d="M9230 5860 c0 -21 33 -60 50 -60 29 0 34 32 10 52 -24 20 -60 24 -60
8z"/>
<path d="M8967 5623 c-11 -10 -8 -63 3 -63 20 0 60 24 60 36 0 22 -48 42 -63
27z"/>
<path d="M8788 5424 c-16 -8 -28 -16 -28 -19 0 -7 63 14 74 25 15 15 -14 12
-46 -6z"/>
<path d="M11620 5181 c0 -14 38 -24 66 -17 14 4 22 11 19 16 -8 13 -85 13 -85
1z"/>
<path d="M8665 5160 c-4 -6 8 -10 30 -10 22 0 34 4 30 10 -3 6 -17 10 -30 10
-13 0 -27 -4 -30 -10z"/>
<path d="M11311 4861 c-8 -6 -9 -11 -3 -15 6 -3 14 -1 17 5 9 14 2 20 -14 10z"/>
<path d="M12521 4611 c-11 -7 -9 -15 10 -40 26 -35 32 -37 49 -16 11 13 9 20
-10 40 -26 28 -29 29 -49 16z"/>
<path d="M8077 4444 c-13 -13 23 -64 46 -64 32 0 67 11 67 20 0 24 -96 61
-113 44z"/>
<path d="M16097 12083 c-4 -3 -7 -19 -7 -33 0 -15 -6 -32 -12 -38 -18 -13
-1077 -332 -1105 -332 -13 0 -30 11 -38 24 -11 16 -22 22 -35 19 -11 -3 -20
-9 -20 -13 0 -13 268 -895 290 -953 48 -128 157 -251 252 -283 64 -21 165 -15
230 14 97 42 188 159 204 261 4 23 8 41 10 41 2 0 29 -18 61 -40 173 -121 380
-78 468 97 28 54 30 66 30 173 l0 115 -145 478 c-144 473 -154 500 -183 470z
m-43 -465 c160 -528 164 -544 130 -609 -19 -37 -83 -68 -141 -69 -47 0 -88 28
-122 83 -22 37 -184 563 -178 581 3 8 245 91 279 95 4 1 19 -36 32 -81z m-515
-100 c66 -206 151 -508 156 -555 14 -116 -32 -188 -133 -212 -91 -22 -160 15
-200 109 -15 35 -182 584 -179 586 5 2 333 102 339 103 3 1 11 -14 17 -31z"/>
<path d="M4187 7969 c-9 -6 -17 -20 -17 -33 0 -13 -6 -28 -12 -34 -17 -13
-1017 -443 -1044 -449 -12 -3 -28 3 -38 12 -12 13 -23 15 -36 9 -21 -10 -24 0
82 -241 36 -84 42 -92 59 -82 13 7 18 17 14 28 -3 10 2 27 12 39 19 21 791
357 800 348 6 -5 -453 -1072 -470 -1094 -6 -7 -19 -11 -28 -9 -10 3 -25 0 -33
-7 -14 -10 -7 -32 55 -176 40 -91 73 -167 75 -168 1 -2 11 -1 22 2 14 5 18 13
15 30 -4 18 2 28 19 39 40 27 1021 447 1042 447 11 0 27 -7 36 -15 13 -12 19
-12 32 -2 14 11 11 24 -34 127 -93 216 -85 202 -106 191 -13 -7 -18 -18 -15
-34 3 -13 -2 -28 -9 -35 -16 -12 -751 -331 -756 -327 -2 1 98 236 221 521
l223 519 31 0 c18 1 35 4 39 7 5 5 -146 377 -160 395 -1 1 -9 -3 -19 -8z"/>
<path d="M10845 3977 c-110 -22 -202 -41 -203 -43 -2 -1 -1 -11 2 -22 5 -15
15 -20 42 -19 19 1 39 -5 43 -11 13 -22 231 -1120 225 -1135 -3 -9 -19 -20
-35 -26 -37 -13 -43 -56 -6 -49 404 78 414 81 409 105 -4 19 -11 23 -43 23
-21 0 -41 4 -44 10 -9 14 -225 1087 -225 1116 0 19 8 28 36 40 25 11 34 20 30
30 -3 9 -6 18 -6 20 0 7 -15 4 -225 -39z"/>
<path d="M9588 3863 c-32 -5 -35 -22 -13 -57 15 -22 14 -29 -3 -77 -11 -30
-119 -279 -241 -554 -195 -440 -226 -504 -261 -536 -22 -20 -40 -45 -40 -55 0
-18 10 -19 195 -16 182 3 195 4 195 21 0 12 -11 23 -30 30 -42 14 -39 37 21
162 49 102 53 107 88 113 20 3 165 6 322 6 l286 0 51 -109 c62 -130 65 -157
20 -174 -10 -3 -18 -13 -18 -22 0 -13 28 -15 205 -15 l205 0 0 23 c0 15 -9 29
-27 38 -20 11 -53 69 -143 254 -65 132 -188 384 -274 559 -86 176 -156 328
-156 338 0 10 7 21 15 24 8 4 15 17 15 30 l0 24 -192 -1 c-106 -1 -205 -4
-220 -6z m300 -499 c68 -136 121 -248 119 -250 -2 -3 -105 -3 -229 -2 l-225 3
101 247 c56 136 103 248 106 248 3 0 61 -111 128 -246z"/>
</g>
</svg>
