<svg preserveAspectRatio="none" viewBox="0 0 1280 62" fill="none" xmlns="http://www.w3.org/2000/svg">
<g clip-path="url(#clip0_40_55)">
<path d="M0 0H1280V62H0V0Z" fill="none"/>
<path d="M1280 50.4267L1268.67 48.9387C1257.33 47.368 1234.67 44.392 1212.27 42.3253C1189.73 40.2587 1167.6 39.1013 1145.07 38.6053C1122.67 38.0267 1100 38.0267 1077.6 39.8453C1055.07 41.5813 1032.93 45.2187 1010.4 42.7387C988 40.2587 965.333 31.6613 942.933 27.28C920.4 22.8987 898.267 22.568 875.733 25.6267C853.333 28.6853 830.667 34.968 808.267 36.952C785.733 38.8533 763.6 36.3733 741.067 33.6453C718.667 30.8347 696 27.8587 673.6 29.9253C651.067 31.992 628.933 39.1013 606.4 43.648C584 48.1947 561.333 50.1787 538.933 50.84C516.4 51.5013 494.267 51.0053 471.733 47.368C449.333 43.8133 426.667 37.2 404.267 34.472C381.733 31.6613 359.6 32.8187 337.067 33.6453C314.667 34.472 292 34.968 269.6 35.3813C247.067 35.7947 224.933 36.1253 202.4 35.96C180 35.7947 157.333 35.2987 134.933 35.7947C112.4 36.3733 90.2666 38.0267 67.7333 39.68C45.3333 41.3333 22.6666 42.9867 11.3333 43.8133L-3.8147e-05 44.64V0H11.3333C22.6666 0 45.3333 0 67.7333 0C90.2666 0 112.4 0 134.933 0C157.333 0 180 0 202.4 0C224.933 0 247.067 0 269.6 0C292 0 314.667 0 337.067 0C359.6 0 381.733 0 404.267 0C426.667 0 449.333 0 471.733 0C494.267 0 516.4 0 538.933 0C561.333 0 584 0 606.4 0C628.933 0 651.067 0 673.6 0C696 0 718.667 0 741.067 0C763.6 0 785.733 0 808.267 0C830.667 0 853.333 0 875.733 0C898.267 0 920.4 0 942.933 0C965.333 0 988 0 1010.4 0C1032.93 0 1055.07 0 1077.6 0C1100 0 1122.67 0 1145.07 0C1167.6 0 1189.73 0 1212.27 0C1234.67 0 1257.33 0 1268.67 0H1280V50.4267Z" fill="#868686"/>
<path d="M1280 30.5867L1268.67 28.9333C1257.33 27.28 1234.67 23.9733 1212.27 24.3867C1189.73 24.8 1167.6 28.9333 1145.07 29.3467C1122.67 29.76 1100 26.4533 1077.6 27.28C1055.07 28.1067 1032.93 33.0667 1010.4 35.712C988 38.2747 965.333 38.6053 942.933 37.8613C920.4 37.2 898.267 35.5467 875.733 31.8267C853.333 28.1067 830.667 22.32 808.267 21.7413C785.733 21.2453 763.6 25.8747 741.067 26.288C718.667 26.7013 696 22.8987 673.6 23.1467C651.067 23.3947 628.933 27.8587 606.4 31.248C584 34.72 561.333 37.2 538.933 36.3733C516.4 35.5467 494.267 31.4133 471.733 32.0747C449.333 32.8187 426.667 38.2747 404.267 36.6213C381.733 34.968 359.6 26.2053 337.067 25.048C314.667 23.9733 292 30.5867 269.6 31.4133C247.067 32.24 224.933 27.28 202.4 27.28C180 27.28 157.333 32.24 134.933 31.5787C112.4 30.8347 90.2666 24.552 67.7333 24.552C45.3333 24.552 22.6666 30.8347 11.3333 34.0587L-3.8147e-05 37.2V0H11.3333C22.6666 0 45.3333 0 67.7333 0C90.2666 0 112.4 0 134.933 0C157.333 0 180 0 202.4 0C224.933 0 247.067 0 269.6 0C292 0 314.667 0 337.067 0C359.6 0 381.733 0 404.267 0C426.667 0 449.333 0 471.733 0C494.267 0 516.4 0 538.933 0C561.333 0 584 0 606.4 0C628.933 0 651.067 0 673.6 0C696 0 718.667 0 741.067 0C763.6 0 785.733 0 808.267 0C830.667 0 853.333 0 875.733 0C898.267 0 920.4 0 942.933 0C965.333 0 988 0 1010.4 0C1032.93 0 1055.07 0 1077.6 0C1100 0 1122.67 0 1145.07 0C1167.6 0 1189.73 0 1212.27 0C1234.67 0 1257.33 0 1268.67 0H1280V30.5867Z" fill="#6A6A6A"/>
<path d="M1280 20.6667H1268.67C1257.33 20.6667 1234.67 20.6667 1212.27 20.2533C1189.73 19.84 1167.6 19.0133 1145.07 19.1787C1122.67 19.2613 1100 20.4187 1077.6 20.4187C1055.07 20.4187 1032.93 19.2613 1010.4 20.2533C988 21.2453 965.333 24.2213 942.933 23.7253C920.4 23.1467 898.267 19.0133 875.733 18.0213C853.333 17.112 830.667 19.2613 808.267 21.6587C785.733 23.9733 763.6 26.4533 741.067 25.3787C718.667 24.2213 696 19.592 673.6 18.1867C651.067 16.7813 628.933 18.7653 606.4 19.1787C584 19.592 561.333 18.4347 538.933 18.1867C516.4 17.9387 494.267 18.4347 471.733 20.2533C449.333 22.072 426.667 25.048 404.267 25.048C381.733 25.048 359.6 22.072 337.067 21.4933C314.667 20.9147 292 22.8987 269.6 24.9653C247.067 27.032 224.933 29.1813 202.4 30.5867C180 31.992 157.333 32.488 134.933 32.488C112.4 32.488 90.2666 31.992 67.7333 28.768C45.3333 25.6267 22.6666 19.84 11.3333 16.9467L-3.8147e-05 14.0533V0H11.3333C22.6666 0 45.3333 0 67.7333 0C90.2666 0 112.4 0 134.933 0C157.333 0 180 0 202.4 0C224.933 0 247.067 0 269.6 0C292 0 314.667 0 337.067 0C359.6 0 381.733 0 404.267 0C426.667 0 449.333 0 471.733 0C494.267 0 516.4 0 538.933 0C561.333 0 584 0 606.4 0C628.933 0 651.067 0 673.6 0C696 0 718.667 0 741.067 0C763.6 0 785.733 0 808.267 0C830.667 0 853.333 0 875.733 0C898.267 0 920.4 0 942.933 0C965.333 0 988 0 1010.4 0C1032.93 0 1055.07 0 1077.6 0C1100 0 1122.67 0 1145.07 0C1167.6 0 1189.73 0 1212.27 0C1234.67 0 1257.33 0 1268.67 0H1280V20.6667Z" fill="#4F4F4F"/>
<path d="M1280 28.9333L1268.67 26.288C1257.33 23.7253 1234.67 18.4347 1212.27 16.9467C1189.73 15.4587 1167.6 17.608 1145.07 20.0053C1122.67 22.32 1100 24.8 1077.6 25.8747C1055.07 27.032 1032.93 26.7013 1010.4 26.8667C988 27.032 965.333 27.528 942.933 25.048C920.4 22.568 898.267 17.112 875.733 16.7813C853.333 16.5333 830.667 21.4933 808.267 21.2453C785.733 20.9147 763.6 15.4587 741.067 15.4587C718.667 15.4587 696 20.9147 673.6 23.3947C651.067 25.8747 628.933 25.3787 606.4 23.56C584 21.7413 561.333 18.7653 538.933 18.1867C516.4 17.608 494.267 19.592 471.733 21.08C449.333 22.568 426.667 23.7253 404.267 22.8987C381.733 22.072 359.6 19.2613 337.067 18.1867C314.667 17.112 292 17.608 269.6 16.7813C247.067 15.9547 224.933 13.8053 202.4 13.888C180 14.0533 157.333 16.5333 134.933 16.9467C112.4 17.36 90.2666 15.7067 67.7333 16.9467C45.3333 18.1867 22.6666 22.32 11.3333 24.3867L-3.8147e-05 26.4533V0H11.3333C22.6666 0 45.3333 0 67.7333 0C90.2666 0 112.4 0 134.933 0C157.333 0 180 0 202.4 0C224.933 0 247.067 0 269.6 0C292 0 314.667 0 337.067 0C359.6 0 381.733 0 404.267 0C426.667 0 449.333 0 471.733 0C494.267 0 516.4 0 538.933 0C561.333 0 584 0 606.4 0C628.933 0 651.067 0 673.6 0C696 0 718.667 0 741.067 0C763.6 0 785.733 0 808.267 0C830.667 0 853.333 0 875.733 0C898.267 0 920.4 0 942.933 0C965.333 0 988 0 1010.4 0C1032.93 0 1055.07 0 1077.6 0C1100 0 1122.67 0 1145.07 0C1167.6 0 1189.73 0 1212.27 0C1234.67 0 1257.33 0 1268.67 0H1280V28.9333Z" fill="#353535"/>
<path d="M1280 16.5333L1268.67 15.9547C1257.33 15.4587 1234.67 14.3013 1212.27 13.0613C1189.73 11.8213 1167.6 10.4987 1145.07 10.7467C1122.67 10.9947 1100 12.9787 1077.6 14.88C1055.07 16.7813 1032.93 18.7653 1010.4 17.36C988 15.9547 965.333 11.3253 942.933 10.5813C920.4 9.92 898.267 13.2267 875.733 14.3013C853.333 15.4587 830.667 14.3013 808.267 14.3013C785.733 14.3013 763.6 15.4587 741.067 15.0453C718.667 14.632 696 12.648 673.6 10.912C651.067 9.09333 628.933 7.44 606.4 6.61333C584 5.78667 561.333 5.78667 538.933 8.432C516.4 10.9947 494.267 16.2853 471.733 18.848C449.333 21.4933 426.667 21.4933 404.267 20.0053C381.733 18.4347 359.6 15.4587 337.067 13.0613C314.667 10.7467 292 9.09333 269.6 9.09333C247.067 9.09333 224.933 10.7467 202.4 11.16C180 11.5733 157.333 10.7467 134.933 10.5813C112.4 10.4987 90.2666 10.9947 67.7333 11.16C45.3333 11.3253 22.6666 10.9947 11.3333 10.912L-3.8147e-05 10.7467V0H11.3333C22.6666 0 45.3333 0 67.7333 0C90.2666 0 112.4 0 134.933 0C157.333 0 180 0 202.4 0C224.933 0 247.067 0 269.6 0C292 0 314.667 0 337.067 0C359.6 0 381.733 0 404.267 0C426.667 0 449.333 0 471.733 0C494.267 0 516.4 0 538.933 0C561.333 0 584 0 606.4 0C628.933 0 651.067 0 673.6 0C696 0 718.667 0 741.067 0C763.6 0 785.733 0 808.267 0C830.667 0 853.333 0 875.733 0C898.267 0 920.4 0 942.933 0C965.333 0 988 0 1010.4 0C1032.93 0 1055.07 0 1077.6 0C1100 0 1122.67 0 1145.07 0C1167.6 0 1189.73 0 1212.27 0C1234.67 0 1257.33 0 1268.67 0H1280V16.5333Z" fill="#1E1E1E"/>
<path d="M1280 13.2267L1268.67 11.408C1257.33 9.672 1234.67 6.03467 1212.27 5.12533C1189.73 4.13333 1167.6 5.78667 1145.07 5.952C1122.67 6.03467 1100 4.712 1077.6 4.96C1055.07 5.208 1032.93 7.192 1010.4 7.60533C988 8.01867 965.333 6.86133 942.933 7.44C920.4 8.01867 898.267 10.168 875.733 9.672C853.333 9.09333 830.667 5.78667 808.267 5.62133C785.733 5.53867 763.6 8.51467 741.067 8.84533C718.667 9.09333 696 6.61333 673.6 5.78667C651.067 4.96 628.933 5.78667 606.4 5.53867C584 5.208 561.333 3.88533 538.933 3.55467C516.4 3.30667 494.267 4.13333 471.733 5.78667C449.333 7.44 426.667 9.92 404.267 9.50667C381.733 9.09333 359.6 5.78667 337.067 5.208C314.667 4.712 292 6.86133 269.6 8.68C247.067 10.4987 224.933 11.8213 202.4 12.2347C180 12.648 157.333 12.152 134.933 11.7387C112.4 11.3253 90.2666 10.9947 67.7333 11.3253C45.3333 11.5733 22.6666 12.4 11.3333 12.8133L-3.8147e-05 13.2267V0H11.3333C22.6666 0 45.3333 0 67.7333 0C90.2666 0 112.4 0 134.933 0C157.333 0 180 0 202.4 0C224.933 0 247.067 0 269.6 0C292 0 314.667 0 337.067 0C359.6 0 381.733 0 404.267 0C426.667 0 449.333 0 471.733 0C494.267 0 516.4 0 538.933 0C561.333 0 584 0 606.4 0C628.933 0 651.067 0 673.6 0C696 0 718.667 0 741.067 0C763.6 0 785.733 0 808.267 0C830.667 0 853.333 0 875.733 0C898.267 0 920.4 0 942.933 0C965.333 0 988 0 1010.4 0C1032.93 0 1055.07 0 1077.6 0C1100 0 1122.67 0 1145.07 0C1167.6 0 1189.73 0 1212.27 0C1234.67 0 1257.33 0 1268.67 0H1280V13.2267Z" fill="black"/>
</g>
<defs>
<clipPath id="clip0_40_55">
<rect width="1280" height="62" fill="none" transform="matrix(-1 0 0 1 1280 0)"/>
</clipPath>
</defs>
</svg>
