<svg preserveAspectRatio="none" viewBox="0 0 1280 51" fill="none" xmlns="http://www.w3.org/2000/svg">
<g clip-path="url(#clip0_40_47)">
<path d="M1280 0H0V51H1280V0Z" fill="none"/>
<path d="M0 8.16L11.3333 9.384C22.6667 10.676 45.3333 13.124 67.7333 14.824C90.2667 16.524 112.4 17.476 134.933 17.884C157.333 18.36 180 18.36 202.4 16.864C224.933 15.436 247.067 12.444 269.6 14.484C292 16.524 314.667 23.596 337.067 27.2C359.6 30.804 381.733 31.076 404.267 28.56C426.667 26.044 449.333 20.876 471.733 19.244C494.267 17.68 516.4 19.72 538.933 21.964C561.333 24.276 584 26.724 606.4 25.024C628.933 23.324 651.067 17.476 673.6 13.736C696 9.996 718.667 8.364 741.067 7.82C763.6 7.276 785.733 7.684 808.267 10.676C830.667 13.6 853.333 19.04 875.733 21.284C898.267 23.596 920.4 22.644 942.933 21.964C965.333 21.284 988 20.876 1010.4 20.536C1032.93 20.196 1055.07 19.924 1077.6 20.06C1100 20.196 1122.67 20.604 1145.07 20.196C1167.6 19.72 1189.73 18.36 1212.27 17C1234.67 15.64 1257.33 14.28 1268.67 13.6L1280 12.92V51.68H1268.67C1257.33 51.68 1234.67 51.68 1212.27 51.68C1189.73 51.68 1167.6 51.68 1145.07 51.68C1122.67 51.68 1100 51.68 1077.6 51.68C1055.07 51.68 1032.93 51.68 1010.4 51.68C988 51.68 965.333 51.68 942.933 51.68C920.4 51.68 898.267 51.68 875.733 51.68C853.333 51.68 830.667 51.68 808.267 51.68C785.733 51.68 763.6 51.68 741.067 51.68C718.667 51.68 696 51.68 673.6 51.68C651.067 51.68 628.933 51.68 606.4 51.68C584 51.68 561.333 51.68 538.933 51.68C516.4 51.68 494.267 51.68 471.733 51.68C449.333 51.68 426.667 51.68 404.267 51.68C381.733 51.68 359.6 51.68 337.067 51.68C314.667 51.68 292 51.68 269.6 51.68C247.067 51.68 224.933 51.68 202.4 51.68C180 51.68 157.333 51.68 134.933 51.68C112.4 51.68 90.2667 51.68 67.7333 51.68C45.3333 51.68 22.6667 51.68 11.3333 51.68H0V8.16Z" fill="#868686"/>
<path d="M0 24.48L11.3333 25.84C22.6667 27.2 45.3333 29.92 67.7333 29.58C90.2667 29.24 112.4 25.84 134.933 25.5C157.333 25.16 180 27.88 202.4 27.2C224.933 26.52 247.067 22.44 269.6 20.264C292 18.156 314.667 17.884 337.067 18.496C359.6 19.04 381.733 20.4 404.267 23.46C426.667 26.52 449.333 31.28 471.733 31.756C494.267 32.164 516.4 28.356 538.933 28.016C561.333 27.676 584 30.804 606.4 30.6C628.933 30.396 651.067 26.724 673.6 23.936C696 21.08 718.667 19.04 741.067 19.72C763.6 20.4 785.733 23.8 808.267 23.256C830.667 22.644 853.333 18.156 875.733 19.516C898.267 20.876 920.4 28.084 942.933 29.036C965.333 29.92 988 24.48 1010.4 23.8C1032.93 23.12 1055.07 27.2 1077.6 27.2C1100 27.2 1122.67 23.12 1145.07 23.664C1167.6 24.276 1189.73 29.444 1212.27 29.444C1234.67 29.444 1257.33 24.276 1268.67 21.624L1280 19.04V51.68H1268.67C1257.33 51.68 1234.67 51.68 1212.27 51.68C1189.73 51.68 1167.6 51.68 1145.07 51.68C1122.67 51.68 1100 51.68 1077.6 51.68C1055.07 51.68 1032.93 51.68 1010.4 51.68C988 51.68 965.333 51.68 942.933 51.68C920.4 51.68 898.267 51.68 875.733 51.68C853.333 51.68 830.667 51.68 808.267 51.68C785.733 51.68 763.6 51.68 741.067 51.68C718.667 51.68 696 51.68 673.6 51.68C651.067 51.68 628.933 51.68 606.4 51.68C584 51.68 561.333 51.68 538.933 51.68C516.4 51.68 494.267 51.68 471.733 51.68C449.333 51.68 426.667 51.68 404.267 51.68C381.733 51.68 359.6 51.68 337.067 51.68C314.667 51.68 292 51.68 269.6 51.68C247.067 51.68 224.933 51.68 202.4 51.68C180 51.68 157.333 51.68 134.933 51.68C112.4 51.68 90.2667 51.68 67.7333 51.68C45.3333 51.68 22.6667 51.68 11.3333 51.68H0V24.48Z" fill="#6A6A6A"/>
<path d="M0 32.64H11.3333C22.6667 32.64 45.3333 32.64 67.7333 32.98C90.2667 33.32 112.4 34 134.933 33.864C157.333 33.796 180 32.844 202.4 32.844C224.933 32.844 247.067 33.796 269.6 32.98C292 32.164 314.667 29.716 337.067 30.124C359.6 30.6 381.733 34 404.267 34.816C426.667 35.564 449.333 33.796 471.733 31.824C494.267 29.92 516.4 27.88 538.933 28.764C561.333 29.716 584 33.524 606.4 34.68C628.933 35.836 651.067 34.204 673.6 33.864C696 33.524 718.667 34.476 741.067 34.68C763.6 34.884 785.733 34.476 808.267 32.98C830.667 31.484 853.333 29.036 875.733 29.036C898.267 29.036 920.4 31.484 942.933 31.96C965.333 32.436 988 30.804 1010.4 29.104C1032.93 27.404 1055.07 25.636 1077.6 24.48C1100 23.324 1122.67 22.916 1145.07 22.916C1167.6 22.916 1189.73 23.324 1212.27 25.976C1234.67 28.56 1257.33 33.32 1268.67 35.7L1280 38.08V51.68H1268.67C1257.33 51.68 1234.67 51.68 1212.27 51.68C1189.73 51.68 1167.6 51.68 1145.07 51.68C1122.67 51.68 1100 51.68 1077.6 51.68C1055.07 51.68 1032.93 51.68 1010.4 51.68C988 51.68 965.333 51.68 942.933 51.68C920.4 51.68 898.267 51.68 875.733 51.68C853.333 51.68 830.667 51.68 808.267 51.68C785.733 51.68 763.6 51.68 741.067 51.68C718.667 51.68 696 51.68 673.6 51.68C651.067 51.68 628.933 51.68 606.4 51.68C584 51.68 561.333 51.68 538.933 51.68C516.4 51.68 494.267 51.68 471.733 51.68C449.333 51.68 426.667 51.68 404.267 51.68C381.733 51.68 359.6 51.68 337.067 51.68C314.667 51.68 292 51.68 269.6 51.68C247.067 51.68 224.933 51.68 202.4 51.68C180 51.68 157.333 51.68 134.933 51.68C112.4 51.68 90.2667 51.68 67.7333 51.68C45.3333 51.68 22.6667 51.68 11.3333 51.68H0V32.64Z" fill="#4F4F4F"/>
<path d="M0 25.84L11.3333 28.016C22.6667 30.124 45.3333 34.476 67.7333 35.7C90.2667 36.924 112.4 35.156 134.933 33.184C157.333 31.28 180 29.24 202.4 28.356C224.933 27.404 247.067 27.676 269.6 27.54C292 27.404 314.667 26.996 337.067 29.036C359.6 31.076 381.733 35.564 404.267 35.836C426.667 36.04 449.333 31.96 471.733 32.164C494.267 32.436 516.4 36.924 538.933 36.924C561.333 36.924 584 32.436 606.4 30.396C628.933 28.356 651.067 28.764 673.6 30.26C696 31.756 718.667 34.204 741.067 34.68C763.6 35.156 785.733 33.524 808.267 32.3C830.667 31.076 853.333 30.124 875.733 30.804C898.267 31.484 920.4 33.796 942.933 34.68C965.333 35.564 988 35.156 1010.4 35.836C1032.93 36.516 1055.07 38.284 1077.6 38.216C1100 38.08 1122.67 36.04 1145.07 35.7C1167.6 35.36 1189.73 36.72 1212.27 35.7C1234.67 34.68 1257.33 31.28 1268.67 29.58L1280 27.88V51.68H1268.67C1257.33 51.68 1234.67 51.68 1212.27 51.68C1189.73 51.68 1167.6 51.68 1145.07 51.68C1122.67 51.68 1100 51.68 1077.6 51.68C1055.07 51.68 1032.93 51.68 1010.4 51.68C988 51.68 965.333 51.68 942.933 51.68C920.4 51.68 898.267 51.68 875.733 51.68C853.333 51.68 830.667 51.68 808.267 51.68C785.733 51.68 763.6 51.68 741.067 51.68C718.667 51.68 696 51.68 673.6 51.68C651.067 51.68 628.933 51.68 606.4 51.68C584 51.68 561.333 51.68 538.933 51.68C516.4 51.68 494.267 51.68 471.733 51.68C449.333 51.68 426.667 51.68 404.267 51.68C381.733 51.68 359.6 51.68 337.067 51.68C314.667 51.68 292 51.68 269.6 51.68C247.067 51.68 224.933 51.68 202.4 51.68C180 51.68 157.333 51.68 134.933 51.68C112.4 51.68 90.2667 51.68 67.7333 51.68C45.3333 51.68 22.6667 51.68 11.3333 51.68H0V25.84Z" fill="#353535"/>
<path d="M0 36.04L11.3333 36.516C22.6667 36.924 45.3333 37.876 67.7333 38.896C90.2667 39.916 112.4 41.004 134.933 40.8C157.333 40.596 180 38.964 202.4 37.4C224.933 35.836 247.067 34.204 269.6 35.36C292 36.516 314.667 40.324 337.067 40.936C359.6 41.48 381.733 38.76 404.267 37.876C426.667 36.924 449.333 37.876 471.733 37.876C494.267 37.876 516.4 36.924 538.933 37.264C561.333 37.604 584 39.236 606.4 40.664C628.933 42.16 651.067 43.52 673.6 44.2C696 44.88 718.667 44.88 741.067 42.704C763.6 40.596 785.733 36.244 808.267 34.136C830.667 31.96 853.333 31.96 875.733 33.184C898.267 34.476 920.4 36.924 942.933 38.896C965.333 40.8 988 42.16 1010.4 42.16C1032.93 42.16 1055.07 40.8 1077.6 40.46C1100 40.12 1122.67 40.8 1145.07 40.936C1167.6 41.004 1189.73 40.596 1212.27 40.46C1234.67 40.324 1257.33 40.596 1268.67 40.664L1280 40.8V51.68H1268.67C1257.33 51.68 1234.67 51.68 1212.27 51.68C1189.73 51.68 1167.6 51.68 1145.07 51.68C1122.67 51.68 1100 51.68 1077.6 51.68C1055.07 51.68 1032.93 51.68 1010.4 51.68C988 51.68 965.333 51.68 942.933 51.68C920.4 51.68 898.267 51.68 875.733 51.68C853.333 51.68 830.667 51.68 808.267 51.68C785.733 51.68 763.6 51.68 741.067 51.68C718.667 51.68 696 51.68 673.6 51.68C651.067 51.68 628.933 51.68 606.4 51.68C584 51.68 561.333 51.68 538.933 51.68C516.4 51.68 494.267 51.68 471.733 51.68C449.333 51.68 426.667 51.68 404.267 51.68C381.733 51.68 359.6 51.68 337.067 51.68C314.667 51.68 292 51.68 269.6 51.68C247.067 51.68 224.933 51.68 202.4 51.68C180 51.68 157.333 51.68 134.933 51.68C112.4 51.68 90.2667 51.68 67.7333 51.68C45.3333 51.68 22.6667 51.68 11.3333 51.68H0V36.04Z" fill="#1E1E1E"/>
<path d="M0 38.76L11.3333 40.256C22.6667 41.684 45.3333 44.676 67.7333 45.424C90.2667 46.24 112.4 44.88 134.933 44.744C157.333 44.676 180 45.764 202.4 45.56C224.933 45.356 247.067 43.724 269.6 43.384C292 43.044 314.667 43.996 337.067 43.52C359.6 43.044 381.733 41.276 404.267 41.684C426.667 42.16 449.333 44.88 471.733 45.016C494.267 45.084 516.4 42.636 538.933 42.364C561.333 42.16 584 44.2 606.4 44.88C628.933 45.56 651.067 44.88 673.6 45.084C696 45.356 718.667 46.444 741.067 46.716C763.6 46.92 785.733 46.24 808.267 44.88C830.667 43.52 853.333 41.48 875.733 41.82C898.267 42.16 920.4 44.88 942.933 45.356C965.333 45.764 988 43.996 1010.4 42.5C1032.93 41.004 1055.07 39.916 1077.6 39.576C1100 39.236 1122.67 39.644 1145.07 39.984C1167.6 40.324 1189.73 40.596 1212.27 40.324C1234.67 40.12 1257.33 39.44 1268.67 39.1L1280 38.76V51.68H1268.67C1257.33 51.68 1234.67 51.68 1212.27 51.68C1189.73 51.68 1167.6 51.68 1145.07 51.68C1122.67 51.68 1100 51.68 1077.6 51.68C1055.07 51.68 1032.93 51.68 1010.4 51.68C988 51.68 965.333 51.68 942.933 51.68C920.4 51.68 898.267 51.68 875.733 51.68C853.333 51.68 830.667 51.68 808.267 51.68C785.733 51.68 763.6 51.68 741.067 51.68C718.667 51.68 696 51.68 673.6 51.68C651.067 51.68 628.933 51.68 606.4 51.68C584 51.68 561.333 51.68 538.933 51.68C516.4 51.68 494.267 51.68 471.733 51.68C449.333 51.68 426.667 51.68 404.267 51.68C381.733 51.68 359.6 51.68 337.067 51.68C314.667 51.68 292 51.68 269.6 51.68C247.067 51.68 224.933 51.68 202.4 51.68C180 51.68 157.333 51.68 134.933 51.68C112.4 51.68 90.2667 51.68 67.7333 51.68C45.3333 51.68 22.6667 51.68 11.3333 51.68H0V38.76Z" fill="black"/>
</g>
<defs>
<clipPath id="clip0_40_47">
<rect width="1280" height="51" fill="none"/>
</clipPath>
</defs>
</svg>
